<svg xmlns="http://www.w3.org/2000/svg" width="291" height="50">
  <g fill="#36417b">
    <path d="M15.9 22.2c-1.1 0-2 .5-2.7 1.4-.7.9-1 2.1-1 3.7 0 1.8.3 3.1 1 4 .7.9 1.6 1.4 2.8 1.4 1.2 0 2.1-.5 2.8-1.4.6-.8.9-2.2.9-4 0-1.6-.3-2.8-1-3.8a3.3 3.3 0 0 0-2.8-1.3z"/>
    <path d="M25 0a25 25 0 1 0 0 50 25 25 0 0 0 0-50zm-.8 28.6c0 3.1-.9 5.2-2.7 6.3a11.1 11.1 0 0 1-9.2 1c-1.1-.4-2-1-2.7-1.8-1.3-1.7-2-3.9-2-6.7 0-2.7.7-4.9 2-6.7 1.3-1.7 3-2.6 5.1-2.6a5.8 5.8 0 0 1 5 2.7v-5.3c0-.6.2-1.1.7-1.6.4-.4 1-.7 1.6-.7h2.2v15.4zm15.7 5.5c-.7.8-1.5 1.4-2.7 1.8a11.1 11.1 0 0 1-9.2-1c-1.8-1.1-2.7-3.2-2.7-6.3V13.4h2.2c.6 0 1.1.2 1.6.7.4.4.7 1 .7 1.6V21c.5-.8 1.2-1.5 2.1-2 .8-.4 1.8-.7 2.9-.7 2.1 0 3.8.9 5.1 2.6 1.3 1.7 2 3.9 2 6.7 0 2.5-.7 4.8-2 6.5z"/>
    <path d="M33.7 22.1c-1.2 0-2.2.4-2.8 1.3-.7.9-1 2.2-1 3.8 0 1.8.3 3.2.9 4 .7.9 1.6 1.4 2.8 1.4 1.2 0 2.2-.5 2.8-1.4.7-.9 1-2.3 1-4 0-1.6-.3-2.8-1-3.7a3.3 3.3 0 0 0-2.7-1.4zm39.2-11.8h-8.4c-.8 0-1.6.3-2.2.9a3 3 0 0 0-.9 2.2v26h9.9c2.8 0 4.8-.2 6.2-.6 1.4-.4 2.7-1.1 4-2 1.5-1.1 2.7-2.8 3.6-4.9.8-2.1 1.2-4.4 1.2-7 0-4.8-1.1-8.5-3.3-11-2.3-2.5-5.6-3.6-10.1-3.6zm5.4 21.6c-1.3 1.5-3.3 2.2-6.1 2.2h-4.8V15.3H73c2.5 0 4.3.8 5.4 2.3 1.2 1.5 1.8 3.9 1.8 7.2 0 3.4-.7 5.7-1.9 7.1zm18.8-15.6c-3.2 0-5.7 1-7.6 3.1-1.8 2-2.6 4.8-2.6 8.5 0 3.8.9 6.7 2.7 8.7 1.8 2.1 4.3 3.1 7.6 3.1 2.7 0 4.9-.6 6.6-1.9 1.8-1.2 2.9-3 3.6-5.4h-4.2c-.7 0-1.2.1-1.6.4-.4.3-.6.5-.6.7l-.5.5-.5.3c-.7.4-1.5.6-2.5.6-1.5 0-2.6-.5-3.3-1.4-.8-.8-1.2-2.1-1.3-3.9h14.7l.1-.6v-.9a13 13 0 0 0-2.7-8.7c-1.8-2-4.5-3.1-7.9-3.1zM93 25.8c.1-1.5.5-2.6 1.3-3.4.8-.8 1.8-1.2 3.1-1.2 1.4 0 2.4.4 3.1 1.2.7.7 1.1 1.9 1.2 3.4H93zm27.6-.3l-.7-.1-.9-.3c-2.9-.6-4.4-1.4-4.4-2.3 0-.7.3-1.2.8-1.5.6-.3 1.4-.5 2.5-.5 1.2 0 2.1.3 2.8.8l.7.7c.6 1 1.4 1.4 2.5 1.4h3.7c-.1-2.3-1-4.1-2.6-5.5a11.6 11.6 0 0 0-7-1.9c-2.7 0-4.9.6-6.6 1.9a6.9 6.9 0 0 0-2.5 5.3c0 1.7.6 3 1.7 4.1 1 1 3 1.9 6 2.6l2.3.5c2.4.5 3.6 1.3 3.6 2.3 0 .7-.3 1.2-1 1.6-.7.4-1.6.6-2.6.6-1.4 0-2.5-.3-3.4-.8a3.3 3.3 0 0 1-1.3-2.5h-5.8v.3c0 2.5.8 4.4 2.5 5.7 1.6 1.3 4 1.9 7.2 1.9 3.4 0 5.9-.6 7.6-1.9a6.8 6.8 0 0 0 2.7-5.7c0-1.7-.5-3-1.6-4.1-1.3-1-3.3-1.8-6.2-2.6zm20.8 0l8.1-8.6h-7.1l-7.2 8.3V13c0-.7-.3-1.4-.8-1.9-.6-.6-1.2-.8-2-.8h-3.1v29.1h5.9v-8.5c0-.5.3-.8.9-1 .6-.2 1.4.4 2.2 1.9l4.2 7.6h7.1l-8.2-13.9z"/>
  </g>
  <g fill="#afb2b2">
    <path d="M169.1 19.7a8 8 0 0 0-6.5-3.3c-1.5 0-2.7.3-3.7.8a6.8 6.8 0 0 0-2.7 2.6v-6.7c0-.8-.3-1.5-.8-2-.6-.6-1.2-.8-2-.8h-2.9v19.3c0 4 1.2 6.7 3.5 8.1a14.2 14.2 0 0 0 11.8 1.4 7.6 7.6 0 0 0 3.4-2.3c1.7-2.2 2.5-5 2.5-8.5-.1-3.6-.9-6.4-2.6-8.6zm-4.6 13.4c-.8 1.2-2.1 1.8-3.6 1.8s-2.7-.6-3.5-1.8c-.8-1.1-1.2-2.8-1.2-5.1 0-2 .4-3.6 1.3-4.8.8-1.1 2.1-1.7 3.6-1.7s2.6.6 3.5 1.8a8 8 0 0 1 1.3 4.7 9 9 0 0 1-1.4 5.1zm26.9-11.6a8.8 8.8 0 0 0-4.7-4.4c-1.9-.7-3.9-.9-6.3-.5a8.9 8.9 0 0 0-5.7 3c-.9 1-1.6 2.3-2 3.8a17.6 17.6 0 0 0 .2 10 9 9 0 0 0 2.5 4.1c1.1 1 2.6 1.7 4.5 2.2 1.9.4 3.8.4 5.6-.1a8.7 8.7 0 0 0 5.2-3.5c.6-.9 1.1-2 1.5-3.3.4-1.3.6-2.8.6-4.6.1-2.7-.4-4.9-1.4-6.7zM186 32.9a5 5 0 0 1-2.3 1.9c-.9.3-1.7.2-2.6-.1a5 5 0 0 1-1.8-1.1c-.8-1-1.3-2.8-1.4-5.4-.1-2.6.4-4.5 1.6-5.8.4-.4 1-.7 1.9-1 .8-.3 1.7-.2 2.5 0 .8.3 1.6.9 2.2 1.9a9 9 0 0 1 1 4.6c-.1 2.4-.4 4-1.1 5zm26.5-11.4a8.8 8.8 0 0 0-4.7-4.4c-1.9-.7-3.9-.9-6.2-.5a8.9 8.9 0 0 0-5.7 3c-.9 1-1.6 2.3-2 3.8a17.6 17.6 0 0 0 .2 10 9 9 0 0 0 2.5 4.1c1.1 1 2.6 1.7 4.5 2.2 1.9.4 3.8.4 5.6-.1a8.7 8.7 0 0 0 5.2-3.5c.6-.9 1.1-2 1.5-3.3.4-1.3.6-2.8.6-4.6 0-2.7-.5-4.9-1.5-6.7zm-5.4 11.4c-.7 1-1.4 1.6-2.3 1.9-.9.3-1.7.2-2.6-.1a5 5 0 0 1-1.8-1.1c-.8-1-1.3-2.8-1.4-5.4-.1-2.6.4-4.5 1.6-5.8.4-.4 1-.7 1.9-1 .8-.3 1.7-.2 2.5 0 .8.3 1.6.9 2.2 1.9a9 9 0 0 1 1 4.6c0 2.4-.4 4-1.1 5zm28-16H228l-7.2 8.3V13.1c0-.7-.3-1.4-.8-1.9-.6-.6-1.2-.8-2-.8h-3v29h5.9v-8.5c0-.5.3-.8.9-1 .6-.2 1.4.4 2.2 1.9l4.1 7.6h7.1l-8.1-13.8 8-8.7z"/>
    <path d="M250.7 19.4c-1.9-2-4.5-3-7.9-3-3.2 0-5.7 1-7.5 3.1-1.7 2-2.6 4.8-2.6 8.4 0 3.8.9 6.7 2.7 8.7a9.3 9.3 0 0 0 7.5 3.1 11 11 0 0 0 6.6-1.9 9 9 0 0 0 3.5-5.4h-4.2c-.7 0-1.2.1-1.6.4-.4.3-.6.5-.6.7l-.5.5-.5.3c-.7.4-1.5.6-2.4.6-1.5 0-2.6-.5-3.3-1.3-.8-.8-1.2-2.1-1.3-3.9h14.6l.1-.6v-.9c.1-3.8-.8-6.7-2.6-8.8zm-12 6.4c.1-1.5.5-2.6 1.3-3.4a4 4 0 0 1 3-1.2c1.4 0 2.4.4 3.1 1.2.7.7 1.1 1.9 1.2 3.4h-8.6zm23-8.3c-1.4.4-2.7 1-3.8 1.9a10 10 0 0 0-2.7 3.6c-.6 1.5-1 3.3-1 5.5v10.9h5.9V27.8c0-1.7.4-2.9 1.2-3.7.8-.8 2-1.2 3.6-1.2h1.9v-6h-.8a16 16 0 0 0-4.3.6zm24.7 10.6c-1.1-1-3.1-1.8-6-2.5l-.7-.1-.9-.3c-2.9-.6-4.4-1.4-4.4-2.3 0-.7.3-1.2.8-1.5.6-.3 1.4-.5 2.5-.5 1.2 0 2.1.3 2.8.8l.7.7c.6 1 1.4 1.4 2.5 1.4h3.6c-.1-2.2-1-4.1-2.6-5.5a11.4 11.4 0 0 0-7-1.9c-2.7 0-4.9.6-6.6 1.9a6.8 6.8 0 0 0-2.4 5.3c0 1.7.6 3 1.7 4 1 1 3 1.9 6 2.6l2.3.5c2.4.5 3.5 1.3 3.5 2.3 0 .7-.3 1.2-1 1.6-.7.4-1.6.6-2.6.6-1.4 0-2.5-.3-3.4-.8a3.3 3.3 0 0 1-1.3-2.5h-5.7v.3c0 2.5.8 4.4 2.4 5.6 1.6 1.3 4 1.9 7.2 1.9 3.4 0 5.9-.6 7.6-1.9a6.7 6.7 0 0 0 2.7-5.7c-.1-1.6-.6-3-1.7-4z"/>
  </g>
</svg>
