<?xml version="1.0" encoding="UTF-8" standalone="no"?>
<svg
   xmlns:dc="http://purl.org/dc/elements/1.1/"
   xmlns:cc="http://creativecommons.org/ns#"
   xmlns:rdf="http://www.w3.org/1999/02/22-rdf-syntax-ns#"
   xmlns:svg="http://www.w3.org/2000/svg"
   xmlns="http://www.w3.org/2000/svg"
   viewBox="0 0 233.33333 122.66667"
   height="122.66667"
   width="233.33333"
   xml:space="preserve"
   id="svg2"
   version="1.1"><metadata
     id="metadata8"><rdf:RDF><cc:Work
         rdf:about=""><dc:format>image/svg+xml</dc:format><dc:type
           rdf:resource="http://purl.org/dc/dcmitype/StillImage" /></cc:Work></rdf:RDF></metadata><defs
     id="defs6"><clipPath
       id="clipPath18"
       clipPathUnits="userSpaceOnUse"><path
         id="path16"
         d="M 0,92 H 175 V 0 H 0 Z" /></clipPath><clipPath
       id="clipPath26"
       clipPathUnits="userSpaceOnUse"><path
         id="path24"
         d="M 0,91 H 175 V 1 H 0 Z" /></clipPath></defs><g
     transform="matrix(1.3333333,0,0,-1.3333333,0,122.66667)"
     id="g10"><g
       id="g12"><g
         clip-path="url(#clipPath18)"
         id="g14"><g
           id="g20"><g
             id="g22" /><g
             id="g32"><g
               style="opacity:0"
               id="g30"
               clip-path="url(#clipPath26)"><path
                 id="path28"
                 style="fill:#ffffff;fill-opacity:1;fill-rule:nonzero;stroke:none"
                 d="M 175,1 H 0 v 90 h 175 z" /></g></g></g><g
           transform="translate(97.1191,65.1519)"
           id="g34"><path
             id="path36"
             style="fill:#019ee4;fill-opacity:1;fill-rule:nonzero;stroke:none"
             d="m 0,0 c -0.594,-0.56 -1.121,-1.057 -1.543,-1.506 l -0.707,-0.749 0.197,-1.011 c 0.369,-1.885 0.297,-3.162 -0.082,-4.116 0.119,0.923 -0.011,2.06 -0.533,3.603 l -0.33,0.976 0.607,0.836 c 0.358,0.5 0.815,1.062 1.328,1.696 2.522,3.087 6.165,7.561 5.702,14.123 0.931,0.29 1.896,0.503 2.898,0.596 C 7.607,7.165 3.074,2.895 0,0 M -9.21,2.523 -9.812,1.237 c 0,0 -3.633,0.747 -7.051,-4.398 -0.073,-0.031 -0.151,-0.068 -0.222,-0.098 0.678,1.944 2.023,4.727 3.48,5.945 0.757,0.261 1.576,0.392 2.442,0.392 0.778,0 1.303,-0.112 1.303,-0.112 L -9.082,2.785 C -9.154,2.639 -9.207,2.533 -9.21,2.523 M 9.418,16.485 C -1.678,17.028 -9.402,4.916 -9.402,4.916 c 0,0 -2.505,0.589 -5.188,-0.454 -2.945,-2.161 -5.409,-8.936 -4.9,-10.016 0.64,-1.012 5.334,1.441 5.334,1.441 l 5.394,-4.935 c 0,0 -1.78,-4.715 -0.984,-5 1.053,-0.201 3.334,0.725 5.541,2.037 2.5,1.489 5.281,3.198 4.117,9.13 2.822,2.985 10.703,8.42 9.506,19.366" /></g><g
           transform="translate(106.6387,68.9595)"
           id="g38"><path
             id="path40"
             style="fill:#019ee4;fill-opacity:1;fill-rule:nonzero;stroke:none"
             d="m 0,0 c -0.816,0 -1.645,-0.092 -2.457,-0.256 -1.387,-2.032 -2.982,-3.656 -4.357,-4.967 l 5.08,1.097 c 0.56,0.12 1.146,0.185 1.734,0.185 4.539,0 8.23,-3.693 8.23,-8.23 0,-4.536 -2.488,-8.229 -8.23,-8.229 -3.049,0 -5.352,1.171 -7.043,3.004 l -0.307,-3.833 c 1.801,-1.893 4.196,-3.109 7.35,-3.109 6.787,0 12.174,5.457 12.174,12.167 C 12.174,-5.461 6.711,0 0,0 m -20.735,19.063 c -8.792,0 -16.122,-6.582 -17.05,-15.313 l -0.076,-0.693 -0.687,-0.088 c -6.786,-0.896 -11.903,-6.738 -11.903,-13.594 0,-2.866 0.931,-5.526 2.483,-7.728 3.184,-3.438 6.386,-5.985 11.231,-5.985 3.721,0 5.817,1.071 6.98,2.359 l -1.286,2.016 c -0.753,-1.148 -2.325,-1.888 -5.147,-1.888 -6.171,0 -10.321,5.839 -10.321,11.226 0,4.88 3.644,9.046 8.48,9.687 l 3.764,0.496 0.4,3.774 c 0.718,6.72 6.364,11.788 13.132,11.788 4.014,0 7.608,-1.805 10.034,-4.641 1.105,0.7 2.297,1.335 3.566,1.843 -3.138,4.087 -8.058,6.741 -13.6,6.741" /></g><g
           transform="translate(82.8188,55.9966)"
           id="g42"><path
             id="path44"
             style="fill:#019ee4;fill-opacity:1;fill-rule:nonzero;stroke:none"
             d="m 0,0 c 0.562,-0.481 0.341,-1.657 -0.491,-2.617 -0.833,-0.957 -2.24,-1.362 -3.486,-1.964 0.422,1.37 0.623,2.767 1.455,3.727 C -1.689,0.107 -0.561,0.489 0,0 m -6.262,-7.215 c 2.469,1.194 5.27,1.996 6.922,3.902 1.654,1.906 2.094,4.236 0.98,5.204 -1.115,0.967 -3.359,0.204 -5.015,-1.703 -1.653,-1.907 -2.052,-4.685 -2.887,-7.403" /></g><g
           transform="translate(28.1079,27.2969)"
           id="g46"><path
             id="path48"
             style="fill:#019ee4;fill-opacity:1;fill-rule:nonzero;stroke:none"
             d="m 0,0 c 0,1.322 -0.174,2.508 -0.524,3.557 -0.35,1.05 -0.853,1.941 -1.508,2.675 -0.656,0.733 -1.452,1.293 -2.391,1.682 -0.938,0.389 -1.996,0.584 -3.173,0.584 -1.177,0 -2.238,-0.195 -3.182,-0.584 -0.945,-0.389 -1.746,-0.949 -2.408,-1.682 -0.66,-0.734 -1.168,-1.625 -1.524,-2.675 -0.355,-1.049 -0.533,-2.235 -0.533,-3.557 0,-1.32 0.178,-2.506 0.533,-3.555 0.356,-1.05 0.864,-1.939 1.524,-2.668 0.662,-0.724 1.463,-1.285 2.408,-1.673 0.944,-0.389 2.005,-0.583 3.182,-0.583 1.177,0 2.235,0.194 3.173,0.583 0.939,0.388 1.735,0.949 2.391,1.673 0.655,0.729 1.158,1.618 1.508,2.668 C -0.174,-2.506 0,-1.32 0,0 M 4.599,0 C 4.599,-1.766 4.304,-3.4 3.716,-4.906 3.127,-6.412 2.3,-7.713 1.233,-8.813 c -1.066,-1.099 -2.348,-1.957 -3.847,-2.574 -1.5,-0.615 -3.16,-0.924 -4.982,-0.924 -1.821,0 -3.484,0.309 -4.989,0.924 -1.506,0.617 -2.794,1.475 -3.865,2.574 -1.072,1.1 -1.903,2.401 -2.491,3.907 -0.589,1.506 -0.883,3.14 -0.883,4.906 0,1.766 0.294,3.402 0.883,4.908 0.588,1.504 1.419,2.807 2.491,3.906 1.071,1.098 2.359,1.957 3.865,2.573 1.505,0.617 3.168,0.924 4.989,0.924 1.822,0 3.482,-0.311 4.982,-0.932 C -1.115,10.758 0.167,9.898 1.233,8.807 2.3,7.711 3.127,6.412 3.716,4.908 4.304,3.402 4.599,1.766 4.599,0" /></g><g
           transform="translate(40.7192,25.8145)"
           id="g50"><path
             id="path52"
             style="fill:#019ee4;fill-opacity:1;fill-rule:nonzero;stroke:none"
             d="m 0,0 v -7.063 h 4.548 c 0.834,0 1.531,0.1 2.092,0.301 0.56,0.199 1.01,0.465 1.349,0.799 0.338,0.334 0.582,0.721 0.733,1.166 0.15,0.443 0.224,0.916 0.224,1.416 0,0.522 -0.083,0.992 -0.25,1.406 C 8.53,-1.557 8.27,-1.201 7.914,-0.906 7.559,-0.613 7.103,-0.389 6.548,-0.232 5.992,-0.078 5.32,0 4.532,0 Z M 0,3.1 H 3.582 C 5.104,3.1 6.259,3.377 7.048,3.934 7.836,4.49 8.23,5.375 8.23,6.59 8.23,7.848 7.875,8.742 7.164,9.277 6.453,9.813 5.343,10.078 3.832,10.078 H 0 Z m -4.481,-13.663 v 24.09 h 8.313 c 1.577,0 2.924,-0.148 4.04,-0.449 1.116,-0.301 2.033,-0.728 2.749,-1.281 0.716,-0.557 1.241,-1.229 1.574,-2.018 0.333,-0.787 0.5,-1.677 0.5,-2.664 0,-0.566 -0.084,-1.109 -0.25,-1.625 C 12.278,4.973 12.021,4.49 11.67,4.039 11.32,3.59 10.877,3.182 10.338,2.816 9.799,2.449 9.157,2.139 8.413,1.883 c 3.311,-0.744 4.965,-2.533 4.965,-5.363 0,-1.022 -0.194,-1.967 -0.583,-2.833 -0.389,-0.867 -0.955,-1.613 -1.699,-2.24 -0.744,-0.629 -1.66,-1.121 -2.749,-1.474 -1.089,-0.356 -2.332,-0.536 -3.732,-0.536 z" /></g><g
           transform="translate(62.4272,18.9512)"
           id="g54"><path
             id="path56"
             style="fill:#019ee4;fill-opacity:1;fill-rule:nonzero;stroke:none"
             d="M 0,0 H 9.646 V -3.699 H -4.482 v 24.09 H 0 Z" /></g><path
           id="path58"
           style="fill:#019ee4;fill-opacity:1;fill-rule:nonzero;stroke:none"
           d="m 80.219,15.252 h -4.498 v 24.09 h 4.498 z" /><g
           transform="translate(83.2681,39.3418)"
           id="g60"><path
             id="path62"
             style="fill:#019ee4;fill-opacity:1;fill-rule:nonzero;stroke:none"
             d="M 0,0 H 3.616 C 4.004,0 4.32,-0.094 4.564,-0.281 4.81,-0.471 4.992,-0.715 5.115,-1.016 l 5.664,-14.693 c 0.189,-0.479 0.369,-1.002 0.541,-1.574 0.172,-0.572 0.336,-1.174 0.492,-1.809 0.256,1.278 0.572,2.404 0.949,3.383 l 5.649,14.693 c 0.099,0.256 0.277,0.489 0.533,0.7 C 19.199,-0.105 19.515,0 19.894,0 h 3.613 l -9.73,-24.09 H 9.73 Z" /></g><path
           id="path64"
           style="fill:#019ee4;fill-opacity:1;fill-rule:nonzero;stroke:none"
           d="m 114.34,15.252 h -4.5 v 24.09 h 4.5 z" /><g
           transform="translate(138.2598,27.2969)"
           id="g66"><path
             id="path68"
             style="fill:#019ee4;fill-opacity:1;fill-rule:nonzero;stroke:none"
             d="m 0,0 c 0,1.322 -0.172,2.508 -0.523,3.557 -0.35,1.05 -0.854,1.941 -1.508,2.675 -0.657,0.733 -1.453,1.293 -2.391,1.682 -0.939,0.389 -1.996,0.584 -3.174,0.584 -1.177,0 -2.238,-0.195 -3.181,-0.584 -0.946,-0.389 -1.746,-0.949 -2.409,-1.682 -0.66,-0.734 -1.168,-1.625 -1.523,-2.675 -0.355,-1.049 -0.533,-2.235 -0.533,-3.557 0,-1.32 0.178,-2.506 0.533,-3.555 0.355,-1.05 0.863,-1.939 1.523,-2.668 0.663,-0.724 1.463,-1.285 2.409,-1.673 0.943,-0.389 2.004,-0.583 3.181,-0.583 1.178,0 2.235,0.194 3.174,0.583 0.938,0.388 1.734,0.949 2.391,1.673 0.654,0.729 1.158,1.618 1.508,2.668 C -0.172,-2.506 0,-1.32 0,0 M 4.6,0 C 4.6,-1.766 4.305,-3.4 3.717,-4.906 3.129,-6.412 2.301,-7.713 1.234,-8.813 c -1.066,-1.099 -2.349,-1.957 -3.847,-2.574 -1.5,-0.615 -3.16,-0.924 -4.983,-0.924 -1.82,0 -3.484,0.309 -4.988,0.924 -1.506,0.617 -2.795,1.475 -3.865,2.574 -1.072,1.1 -1.903,2.401 -2.492,3.907 -0.588,1.506 -0.883,3.14 -0.883,4.906 0,1.766 0.295,3.402 0.883,4.908 0.589,1.504 1.42,2.807 2.492,3.906 1.07,1.098 2.359,1.957 3.865,2.573 1.504,0.617 3.168,0.924 4.988,0.924 1.823,0 3.483,-0.311 4.983,-0.932 C -1.115,10.758 0.168,9.898 1.234,8.807 2.301,7.711 3.129,6.412 3.717,4.908 4.305,3.402 4.6,1.766 4.6,0" /></g><g
           transform="translate(149.2285,39.3164)"
           id="g70"><path
             id="path72"
             style="fill:#019ee4;fill-opacity:1;fill-rule:nonzero;stroke:none"
             d="m 0,0 c 0.133,-0.016 0.25,-0.049 0.357,-0.098 0.104,-0.05 0.206,-0.123 0.307,-0.218 0.098,-0.092 0.209,-0.219 0.332,-0.373 l 12.678,-16.112 c -0.047,0.389 -0.076,0.77 -0.092,1.141 -0.018,0.373 -0.025,0.721 -0.025,1.043 V 0.025 h 3.931 v -24.089 h -2.304 c -0.356,0 -0.649,0.056 -0.881,0.168 -0.233,0.109 -0.459,0.31 -0.68,0.597 L 0.996,-7.254 C 1.027,-7.609 1.053,-7.963 1.07,-8.313 1.088,-8.662 1.096,-8.982 1.096,-9.27 V -24.064 H -2.836 V 0.025 h 2.338 C -0.299,0.025 -0.133,0.018 0,0" /></g><g
           transform="translate(22.8516,6.0098)"
           id="g74"><path
             id="path76"
             style="fill:#019ee4;fill-opacity:1;fill-rule:nonzero;stroke:none"
             d="M 0,0 C 0.069,0 0.131,-0.027 0.188,-0.084 L 0.682,-0.623 C 0.3,-1.064 -0.162,-1.41 -0.706,-1.656 -1.25,-1.904 -1.905,-2.027 -2.671,-2.027 c -0.672,0 -1.282,0.117 -1.827,0.349 -0.545,0.231 -1.012,0.555 -1.398,0.975 -0.385,0.416 -0.685,0.918 -0.897,1.504 -0.21,0.584 -0.318,1.228 -0.318,1.929 0,0.702 0.114,1.346 0.341,1.93 0.228,0.586 0.547,1.09 0.96,1.508 0.411,0.422 0.904,0.748 1.477,0.98 0.574,0.231 1.208,0.346 1.901,0.346 0.685,0 1.276,-0.105 1.771,-0.318 0.497,-0.213 0.937,-0.5 1.323,-0.863 L 0.253,5.732 C 0.223,5.689 0.188,5.654 0.149,5.627 0.11,5.598 0.053,5.582 -0.02,5.582 c -0.056,0 -0.116,0.022 -0.179,0.064 -0.063,0.04 -0.137,0.092 -0.224,0.153 -0.087,0.06 -0.189,0.125 -0.305,0.195 -0.117,0.067 -0.257,0.133 -0.417,0.194 -0.16,0.062 -0.346,0.111 -0.558,0.152 -0.213,0.043 -0.458,0.062 -0.735,0.062 -0.498,0 -0.954,-0.086 -1.368,-0.256 C -4.22,5.975 -4.576,5.73 -4.875,5.414 -5.173,5.098 -5.407,4.713 -5.574,4.258 -5.74,3.805 -5.824,3.293 -5.824,2.73 c 0,-0.58 0.084,-1.097 0.25,-1.552 0.167,-0.457 0.394,-0.84 0.683,-1.155 0.287,-0.314 0.629,-0.552 1.024,-0.718 0.393,-0.164 0.819,-0.246 1.273,-0.246 0.277,0 0.527,0.015 0.747,0.048 0.222,0.034 0.427,0.082 0.615,0.153 0.188,0.068 0.364,0.156 0.526,0.265 0.163,0.106 0.326,0.231 0.49,0.379 C -0.141,-0.033 -0.07,0 0,0" /></g><g
           transform="translate(29.3403,5.1465)"
           id="g78"><path
             id="path80"
             style="fill:#019ee4;fill-opacity:1;fill-rule:nonzero;stroke:none"
             d="M 0,0 H 4.03 V -1.061 H -1.26 V 8.254 H 0 Z" /></g><g
           transform="translate(44.4878,8.7402)"
           id="g82"><path
             id="path84"
             style="fill:#019ee4;fill-opacity:1;fill-rule:nonzero;stroke:none"
             d="M 0,0 C 0,0.572 -0.077,1.086 -0.234,1.541 -0.389,1.996 -0.61,2.379 -0.897,2.695 -1.183,3.008 -1.529,3.25 -1.938,3.418 -2.344,3.586 -2.799,3.672 -3.301,3.672 -3.8,3.672 -4.252,3.586 -4.659,3.418 -5.067,3.25 -5.415,3.008 -5.704,2.695 -5.99,2.379 -6.213,1.996 -6.369,1.541 -6.524,1.086 -6.603,0.572 -6.603,0 c 0,-0.572 0.079,-1.084 0.234,-1.537 0.156,-0.453 0.379,-0.836 0.665,-1.151 0.289,-0.314 0.637,-0.554 1.045,-0.72 0.407,-0.168 0.859,-0.252 1.358,-0.252 0.502,0 0.957,0.084 1.363,0.252 0.409,0.166 0.755,0.406 1.041,0.72 0.287,0.315 0.508,0.698 0.663,1.151 C -0.077,-1.084 0,-0.572 0,0 m 1.293,0 c 0,-0.697 -0.11,-1.338 -0.331,-1.922 -0.221,-0.582 -0.533,-1.082 -0.937,-1.504 -0.402,-0.42 -0.886,-0.746 -1.451,-0.976 -0.565,-0.233 -1.192,-0.35 -1.875,-0.35 -0.685,0 -1.309,0.117 -1.872,0.35 -0.563,0.23 -1.046,0.556 -1.45,0.976 -0.402,0.422 -0.714,0.922 -0.935,1.504 -0.221,0.584 -0.332,1.225 -0.332,1.922 0,0.697 0.111,1.338 0.332,1.922 0.221,0.582 0.533,1.082 0.935,1.508 0.404,0.422 0.887,0.748 1.45,0.982 0.563,0.234 1.187,0.352 1.872,0.352 0.683,0 1.31,-0.118 1.875,-0.352 C -0.861,4.178 -0.377,3.852 0.025,3.43 0.429,3.004 0.741,2.504 0.962,1.922 1.183,1.338 1.293,0.697 1.293,0" /></g><g
           transform="translate(54.0127,5.0879)"
           id="g86"><path
             id="path88"
             style="fill:#019ee4;fill-opacity:1;fill-rule:nonzero;stroke:none"
             d="M 0,0 C 0.386,0 0.73,0.066 1.033,0.195 1.337,0.324 1.594,0.508 1.803,0.74 2.014,0.975 2.174,1.254 2.285,1.578 2.395,1.904 2.45,2.262 2.45,2.652 V 8.313 H 3.704 V 2.652 C 3.704,2.113 3.619,1.615 3.448,1.156 3.276,0.697 3.032,0.299 2.714,-0.035 2.395,-0.371 2.006,-0.635 1.546,-0.824 1.087,-1.016 0.572,-1.111 0,-1.111 c -0.572,0 -1.088,0.095 -1.546,0.287 -0.46,0.189 -0.85,0.453 -1.171,0.789 -0.321,0.334 -0.566,0.732 -0.738,1.191 -0.17,0.459 -0.255,0.957 -0.255,1.496 v 5.661 h 1.253 V 2.658 C -2.457,2.27 -2.401,1.91 -2.291,1.586 -2.18,1.262 -2.02,0.982 -1.811,0.748 -1.6,0.514 -1.342,0.33 -1.036,0.197 -0.73,0.066 -0.386,0 0,0" /></g><g
           transform="translate(69.5488,8.7402)"
           id="g90"><path
             id="path92"
             style="fill:#019ee4;fill-opacity:1;fill-rule:nonzero;stroke:none"
             d="M 0,0 C 0,0.572 -0.078,1.084 -0.234,1.533 -0.389,1.984 -0.61,2.365 -0.896,2.678 -1.182,2.99 -1.528,3.229 -1.937,3.393 -2.344,3.559 -2.796,3.639 -3.294,3.639 h -2.217 v -7.274 h 2.217 c 0.498,0 0.95,0.084 1.357,0.25 0.409,0.164 0.755,0.403 1.041,0.711 0.286,0.309 0.507,0.69 0.662,1.141 C -0.078,-1.084 0,-0.572 0,0 m 1.294,0 c 0,-0.697 -0.11,-1.332 -0.332,-1.902 C 0.741,-2.477 0.43,-2.965 0.026,-3.373 -0.376,-3.781 -0.86,-4.096 -1.423,-4.32 -1.986,-4.543 -2.61,-4.654 -3.294,-4.654 H -6.778 V 4.66 h 3.484 c 0.684,0 1.308,-0.113 1.871,-0.336 C -0.86,4.102 -0.376,3.787 0.026,3.377 0.43,2.967 0.741,2.477 0.962,1.904 1.184,1.332 1.294,0.697 1.294,0" /></g><g
           transform="translate(87.0278,6.0098)"
           id="g94"><path
             id="path96"
             style="fill:#019ee4;fill-opacity:1;fill-rule:nonzero;stroke:none"
             d="m 0,0 c 0.07,0 0.132,-0.027 0.188,-0.084 l 0.496,-0.539 c -0.382,-0.441 -0.843,-0.787 -1.389,-1.033 -0.544,-0.248 -1.198,-0.371 -1.966,-0.371 -0.671,0 -1.279,0.117 -1.824,0.349 -0.547,0.231 -1.012,0.555 -1.398,0.975 -0.385,0.416 -0.686,0.918 -0.897,1.504 -0.212,0.584 -0.32,1.228 -0.32,1.929 0,0.702 0.115,1.346 0.343,1.93 0.227,0.586 0.547,1.09 0.959,1.508 0.412,0.422 0.903,0.748 1.476,0.98 0.576,0.231 1.208,0.346 1.902,0.346 0.685,0 1.276,-0.105 1.772,-0.318 0.497,-0.213 0.935,-0.5 1.322,-0.863 L 0.255,5.732 C 0.225,5.689 0.188,5.654 0.151,5.627 0.111,5.598 0.055,5.582 -0.019,5.582 c -0.056,0 -0.116,0.022 -0.178,0.064 -0.064,0.04 -0.137,0.092 -0.226,0.153 -0.085,0.06 -0.186,0.125 -0.305,0.195 C -0.844,6.061 -0.983,6.127 -1.144,6.188 -1.303,6.25 -1.489,6.299 -1.702,6.34 -1.914,6.383 -2.159,6.402 -2.436,6.402 -2.934,6.402 -3.39,6.316 -3.805,6.146 -4.219,5.975 -4.574,5.73 -4.873,5.414 -5.172,5.098 -5.405,4.713 -5.571,4.258 -5.738,3.805 -5.821,3.293 -5.821,2.73 c 0,-0.58 0.083,-1.097 0.25,-1.552 0.166,-0.457 0.393,-0.84 0.681,-1.155 0.289,-0.314 0.63,-0.552 1.025,-0.718 0.393,-0.164 0.818,-0.246 1.273,-0.246 0.277,0 0.527,0.015 0.747,0.048 0.222,0.034 0.425,0.082 0.616,0.153 0.187,0.068 0.362,0.156 0.524,0.265 0.164,0.106 0.327,0.231 0.491,0.379 C -0.141,-0.033 -0.069,0 0,0" /></g><g
           transform="translate(99.6152,8.7402)"
           id="g98"><path
             id="path100"
             style="fill:#019ee4;fill-opacity:1;fill-rule:nonzero;stroke:none"
             d="m 0,0 c 0,0.572 -0.078,1.086 -0.234,1.541 -0.157,0.455 -0.377,0.838 -0.664,1.154 -0.284,0.313 -0.631,0.555 -1.04,0.723 -0.406,0.168 -0.859,0.254 -1.363,0.254 -0.5,0 -0.953,-0.086 -1.359,-0.254 C -5.068,3.25 -5.416,3.008 -5.703,2.695 -5.992,2.379 -6.213,1.996 -6.369,1.541 -6.525,1.086 -6.604,0.572 -6.604,0 c 0,-0.572 0.079,-1.084 0.235,-1.537 0.156,-0.453 0.377,-0.836 0.666,-1.151 0.287,-0.314 0.635,-0.554 1.043,-0.72 0.406,-0.168 0.859,-0.252 1.359,-0.252 0.504,0 0.957,0.084 1.363,0.252 0.409,0.166 0.756,0.406 1.04,0.72 0.287,0.315 0.507,0.698 0.664,1.151 C -0.078,-1.084 0,-0.572 0,0 m 1.293,0 c 0,-0.697 -0.109,-1.338 -0.332,-1.922 -0.221,-0.582 -0.533,-1.082 -0.936,-1.504 -0.402,-0.42 -0.886,-0.746 -1.453,-0.976 -0.564,-0.233 -1.189,-0.35 -1.873,-0.35 -0.685,0 -1.31,0.117 -1.873,0.35 -0.562,0.23 -1.045,0.556 -1.449,0.976 -0.402,0.422 -0.715,0.922 -0.936,1.504 -0.222,0.584 -0.334,1.225 -0.334,1.922 0,0.697 0.112,1.338 0.334,1.922 0.221,0.582 0.534,1.082 0.936,1.508 0.404,0.422 0.887,0.748 1.449,0.982 0.563,0.234 1.188,0.352 1.873,0.352 0.684,0 1.309,-0.118 1.873,-0.352 C -0.861,4.178 -0.377,3.852 0.025,3.43 0.428,3.004 0.74,2.504 0.961,1.922 1.184,1.338 1.293,0.697 1.293,0" /></g><g
           transform="translate(107.3711,13.3594)"
           id="g102"><path
             id="path104"
             style="fill:#019ee4;fill-opacity:1;fill-rule:nonzero;stroke:none"
             d="M 0,0 C 0.055,-0.031 0.115,-0.088 0.184,-0.174 L 5.578,-7.193 C 5.566,-7.08 5.557,-6.971 5.553,-6.865 5.549,-6.76 5.545,-6.656 5.545,-6.557 V 0.041 H 6.65 V -9.273 H 6.016 c -0.102,0 -0.186,0.019 -0.252,0.052 -0.067,0.035 -0.133,0.094 -0.198,0.176 l -5.388,7.012 c 0.01,-0.108 0.015,-0.213 0.019,-0.319 0.004,-0.103 0.006,-0.199 0.006,-0.285 V -9.273 H -0.902 V 0.041 H -0.25 C -0.139,0.041 -0.055,0.027 0,0" /></g><g
           transform="translate(125.5293,13.4004)"
           id="g106"><path
             id="path108"
             style="fill:#019ee4;fill-opacity:1;fill-rule:nonzero;stroke:none"
             d="M 0,0 V -1.059 H -3.008 V -9.314 H -4.27 v 8.255 H -7.291 V 0 Z" /></g><g
           transform="translate(131.1289,8.8906)"
           id="g110"><path
             id="path112"
             style="fill:#019ee4;fill-opacity:1;fill-rule:nonzero;stroke:none"
             d="m 0,0 h 1.318 c 0.37,0 0.694,0.043 0.973,0.133 0.279,0.088 0.514,0.213 0.701,0.377 0.19,0.162 0.33,0.355 0.426,0.582 0.096,0.224 0.143,0.472 0.143,0.746 0,0.555 -0.182,0.973 -0.549,1.254 C 2.645,3.375 2.102,3.516 1.377,3.516 H 0 Z M 0,-0.918 V -4.805 H -1.254 V 4.51 h 2.631 c 0.592,0 1.1,-0.059 1.527,-0.178 C 3.334,4.213 3.688,4.039 3.967,3.814 4.248,3.588 4.453,3.316 4.588,3 4.725,2.68 4.789,2.324 4.789,1.93 4.789,1.6 4.738,1.293 4.635,1.008 4.529,0.723 4.379,0.463 4.184,0.236 3.986,0.01 3.746,-0.186 3.461,-0.344 3.178,-0.506 2.855,-0.627 2.496,-0.709 2.65,-0.801 2.789,-0.932 2.91,-1.105 l 2.719,-3.7 H 4.512 c -0.231,0 -0.399,0.09 -0.508,0.268 l -2.418,3.328 c -0.074,0.104 -0.154,0.178 -0.24,0.223 -0.088,0.045 -0.217,0.068 -0.391,0.068 z" /></g><g
           transform="translate(148.0625,8.7402)"
           id="g114"><path
             id="path116"
             style="fill:#019ee4;fill-opacity:1;fill-rule:nonzero;stroke:none"
             d="M 0,0 C 0,0.572 -0.078,1.086 -0.234,1.541 -0.389,1.996 -0.609,2.379 -0.895,2.695 -1.182,3.008 -1.527,3.25 -1.938,3.418 -2.344,3.586 -2.799,3.672 -3.301,3.672 -3.797,3.672 -4.25,3.586 -4.658,3.418 -5.066,3.25 -5.416,3.008 -5.703,2.695 -5.988,2.379 -6.213,1.996 -6.369,1.541 -6.525,1.086 -6.602,0.572 -6.602,0 c 0,-0.572 0.077,-1.084 0.233,-1.537 0.156,-0.453 0.381,-0.836 0.666,-1.151 0.287,-0.314 0.637,-0.554 1.045,-0.72 0.408,-0.168 0.861,-0.252 1.357,-0.252 0.502,0 0.957,0.084 1.363,0.252 0.411,0.166 0.756,0.406 1.043,0.72 0.286,0.315 0.506,0.698 0.661,1.151 C -0.078,-1.084 0,-0.572 0,0 m 1.293,0 c 0,-0.697 -0.109,-1.338 -0.33,-1.922 -0.221,-0.582 -0.533,-1.082 -0.936,-1.504 -0.404,-0.42 -0.886,-0.746 -1.453,-0.976 -0.566,-0.233 -1.191,-0.35 -1.875,-0.35 -0.685,0 -1.306,0.117 -1.871,0.35 -0.564,0.23 -1.047,0.556 -1.451,0.976 -0.402,0.422 -0.713,0.922 -0.936,1.504 -0.218,0.584 -0.332,1.225 -0.332,1.922 0,0.697 0.114,1.338 0.332,1.922 0.223,0.582 0.534,1.082 0.936,1.508 0.404,0.422 0.887,0.748 1.451,0.982 0.565,0.234 1.186,0.352 1.871,0.352 0.684,0 1.309,-0.118 1.875,-0.352 C -0.859,4.178 -0.377,3.852 0.027,3.43 0.43,3.004 0.742,2.504 0.963,1.922 1.184,1.338 1.293,0.697 1.293,0" /></g><g
           transform="translate(155.2285,5.1465)"
           id="g118"><path
             id="path120"
             style="fill:#019ee4;fill-opacity:1;fill-rule:nonzero;stroke:none"
             d="M 0,0 H 4.031 V -1.061 H -1.262 V 8.254 H 0 Z" /></g></g></g></g></svg>
