<svg xmlns="http://www.w3.org/2000/svg" height="122.67" width="233.33">
  <defs>
    <clipPath id="a">
      <path d="M0 92h175V0H0z"/>
    </clipPath>
  </defs>
  <g clip-path="url(#a)" transform="matrix(1.33333 0 0 -1.33333 0 122.67)" fill="#019ee4">
    <path d="M97.12 65.15c-.6-.56-1.12-1.06-1.54-1.5l-.71-.75.2-1.01c.37-1.89.3-3.17-.09-4.12.12.92 0 2.06-.53 3.6l-.33.98.6.84c.37.5.82 1.06 1.34 1.7 2.52 3.08 6.16 7.55 5.7 14.11.93.3 1.9.5 2.9.6.07-7.28-4.47-11.55-7.54-14.45m-9.21 2.53l-.6-1.3s-3.64.76-7.05-4.39l-.23-.1c.68 1.95 2.03 4.73 3.48 5.95a7.46 7.46 0 0 0 2.45.39c.77 0 1.3-.11 1.3-.11l.78-.18-.13-.26m18.63 13.96c-11.1.54-18.82-11.57-18.82-11.57s-2.5.59-5.2-.46c-2.94-2.16-5.4-8.93-4.9-10.01.65-1.01 5.34 1.44 5.34 1.44l5.4-4.94s-1.78-4.71-.99-5c1.06-.2 3.34.73 5.54 2.04 2.5 1.49 5.29 3.2 4.12 9.13 2.82 2.99 10.7 8.42 9.5 19.37"/>
    <path d="M106.64 68.96a12.47 12.47 0 0 1-2.46-.26 31.16 31.16 0 0 0-4.36-4.96l5.09 1.1a8.24 8.24 0 0 0 9.96-8.05c0-4.54-2.49-8.23-8.23-8.23a9.2 9.2 0 0 0-7.04 3l-.31-3.83c1.8-1.9 4.2-3.1 7.35-3.1a12.14 12.14 0 0 1 12.17 12.16 12.2 12.2 0 0 1-12.17 12.17M85.9 88.02a17.1 17.1 0 0 1-17.05-15.31l-.07-.7-.69-.08a13.74 13.74 0 0 1-11.9-13.6c0-2.86.93-5.52 2.48-7.72 3.19-3.44 6.39-5.99 11.23-5.99 3.72 0 5.82 1.07 6.98 2.36L75.6 49c-.76-1.15-2.33-1.9-5.15-1.9-6.17 0-10.32 5.85-10.32 11.24a9.8 9.8 0 0 0 8.48 9.68l3.76.5.4 3.77A13.18 13.18 0 0 0 85.9 84.08c4.02 0 7.61-1.8 10.04-4.64 1.1.7 2.3 1.33 3.56 1.84a17.12 17.12 0 0 1-13.6 6.74"/>
    <path d="M82.82 56c.56-.48.34-1.66-.5-2.62-.82-.96-2.23-1.36-3.48-1.96.42 1.37.62 2.76 1.46 3.72.83.96 1.96 1.35 2.52.86m-6.26-7.22c2.47 1.2 5.27 2 6.92 3.9 1.65 1.91 2.1 4.24.98 5.2-1.12.97-3.36.21-5.02-1.7-1.65-1.9-2.05-4.68-2.88-7.4M28.1 27.3c0 1.32-.18 2.5-.53 3.55a7.55 7.55 0 0 1-1.5 2.68 6.5 6.5 0 0 1-2.4 1.68c-.93.39-2 .58-3.17.58s-2.24-.19-3.18-.58a6.56 6.56 0 0 1-2.4-1.68 7.58 7.58 0 0 1-1.53-2.68 11.07 11.07 0 0 1-.53-3.55 11 11 0 0 1 .53-3.56 7.5 7.5 0 0 1 1.52-2.67 6.63 6.63 0 0 1 2.41-1.67c.94-.39 2-.58 3.18-.58s2.24.2 3.17.58a6.57 6.57 0 0 1 2.4 1.67 7.45 7.45 0 0 1 1.5 2.67c.35 1.05.53 2.24.53 3.56m4.6 0c0-1.77-.3-3.4-.89-4.91a11.24 11.24 0 0 0-6.33-6.48c-1.5-.62-3.16-.92-4.98-.92a13 13 0 0 0-4.99.92 11.31 11.31 0 0 0-6.35 6.48 13.1 13.1 0 0 0-.89 4.9c0 1.77.3 3.4.89 4.91a11.32 11.32 0 0 0 6.36 6.48c1.5.62 3.16.93 4.98.93 1.82 0 3.48-.31 4.98-.94 1.5-.62 2.78-1.48 3.85-2.57 1.07-1.1 1.9-2.4 2.48-3.9.6-1.5.89-3.14.89-4.9m8.01-1.49v-7.06h4.55c.83 0 1.53.1 2.09.3.56.2 1 .47 1.35.8.34.33.58.72.73 1.17a4.39 4.39 0 0 1-.03 2.82 2.63 2.63 0 0 1-.78 1.07c-.35.3-.8.51-1.36.67-.56.16-1.23.23-2.02.23zm0 3.1h3.58c1.52 0 2.68.28 3.47.84.78.55 1.18 1.44 1.18 2.65 0 1.26-.36 2.16-1.07 2.7-.7.53-1.82.8-3.33.8h-3.83zm-4.48-13.66v24.1h8.31c1.58 0 2.93-.16 4.04-.46a7.77 7.77 0 0 0 2.75-1.28 5 5 0 0 0 1.57-2.02c.34-.78.5-1.67.5-2.66a5.28 5.28 0 0 0-.25-1.63 4.7 4.7 0 0 0-.77-1.45 5.8 5.8 0 0 0-1.33-1.22 8.06 8.06 0 0 0-1.93-.93c3.31-.75 4.97-2.54 4.97-5.37 0-1.02-.2-1.96-.59-2.83a6.24 6.24 0 0 0-1.7-2.24 8.06 8.06 0 0 0-2.74-1.47 12 12 0 0 0-3.74-.54zm26.19 3.7h9.64v-3.7H57.95v24.1h4.48zm17.79-3.7h-4.5v24.1h4.5zm3.05 24.1h3.61c.4 0 .7-.1.95-.29.25-.19.43-.43.55-.73l5.67-14.7c.19-.48.37-1 .54-1.57.17-.57.33-1.17.49-1.81.26 1.28.57 2.4.95 3.38l5.65 14.7c.1.25.27.49.53.7.26.2.57.31.95.31h3.61l-9.73-24.09H93zm31.07-24.1h-4.5v24.1h4.5zm23.92 12.05c0 1.32-.17 2.5-.52 3.55a7.56 7.56 0 0 1-1.51 2.68 6.51 6.51 0 0 1-2.4 1.68c-.93.39-1.99.58-3.17.58a8.3 8.3 0 0 1-3.18-.58 6.56 6.56 0 0 1-2.4-1.68 7.57 7.57 0 0 1-1.53-2.68 11.07 11.07 0 0 1-.53-3.55c0-1.32.18-2.5.53-3.56a7.48 7.48 0 0 1 1.52-2.67 6.64 6.64 0 0 1 2.41-1.67c.95-.39 2-.58 3.18-.58 1.18 0 2.24.2 3.18.58a6.59 6.59 0 0 1 2.39 1.67 7.47 7.47 0 0 1 1.5 2.67c.36 1.05.53 2.24.53 3.56m4.6 0c0-1.77-.3-3.4-.88-4.9a11.26 11.26 0 0 0-6.33-6.48c-1.5-.63-3.16-.93-4.99-.93-1.82 0-3.48.3-4.98.92a11.3 11.3 0 0 0-6.36 6.48 13.3 13.3 0 0 0-.88 4.9c0 1.77.3 3.4.88 4.91a11.3 11.3 0 0 0 6.36 6.48c1.5.62 3.16.93 4.98.93 1.83 0 3.49-.31 4.99-.93a11.49 11.49 0 0 0 6.33-6.48c.58-1.5.88-3.14.88-4.9m6.37 12.02c.13-.02.25-.05.36-.1.1-.05.2-.12.3-.22.1-.1.21-.22.33-.37l12.68-16.11a14.87 14.87 0 0 0-.12 2.18v14.64h3.94V15.25h-2.3c-.36 0-.66.06-.89.17-.23.11-.46.31-.68.6l-12.63 16.04a27.59 27.59 0 0 0 .1-2.01v-14.8h-3.93v24.1h2.34c.2 0 .37-.02.5-.03M22.85 6a.26.26 0 0 0 .19-.08l.5-.54a3.99 3.99 0 0 0-1.4-1.04 4.72 4.72 0 0 0-1.96-.37 4.7 4.7 0 0 0-1.83.35 3.98 3.98 0 0 0-1.4.98 4.38 4.38 0 0 0-.9 1.5 5.67 5.67 0 0 0-.3 1.93c0 .7.1 1.35.33 1.93a4.37 4.37 0 0 0 .96 1.5 4.27 4.27 0 0 0 1.48.99 5.05 5.05 0 0 0 1.9.34c.69 0 1.28-.1 1.77-.31a4.5 4.5 0 0 0 1.32-.87l-.4-.58a.41.41 0 0 0-.1-.1.28.28 0 0 0-.18-.05.33.33 0 0 0-.18.07l-.22.15a2.98 2.98 0 0 1-.72.39c-.16.06-.35.1-.56.15a3.75 3.75 0 0 1-.74.06c-.5 0-.95-.08-1.36-.25a3.06 3.06 0 0 1-1.07-.74 3.34 3.34 0 0 1-.7-1.15 4.43 4.43 0 0 1-.25-1.53c0-.58.08-1.1.25-1.55.16-.46.4-.84.68-1.16a2.88 2.88 0 0 1 1.02-.72 3.28 3.28 0 0 1 1.28-.24c.27 0 .52.01.74.05a3.04 3.04 0 0 1 1.15.41c.16.11.32.23.49.38.07.07.14.1.21.1m6.49-.86h4.03V4.09h-5.29v9.31h1.26zm15.15 3.59a4.71 4.71 0 0 1-.24 1.54 3.25 3.25 0 0 1-.66 1.16 2.86 2.86 0 0 1-1.04.72 3.54 3.54 0 0 1-1.36.25c-.5 0-.95-.08-1.36-.25a2.91 2.91 0 0 1-1.05-.72 3.28 3.28 0 0 1-.66-1.16 4.76 4.76 0 0 1-.23-1.54c0-.57.07-1.08.23-1.54.16-.45.38-.83.66-1.15a2.87 2.87 0 0 1 1.05-.72 3.52 3.52 0 0 1 1.36-.25c.5 0 .95.08 1.36.25.4.17.76.4 1.04.72.29.32.5.7.66 1.15.16.46.24.97.24 1.54m1.3 0a5.39 5.39 0 0 0-.34-1.92 4.4 4.4 0 0 0-.94-1.5 4.15 4.15 0 0 0-1.45-.98 4.88 4.88 0 0 0-1.87-.35 4.85 4.85 0 0 0-1.87.35 4.18 4.18 0 0 0-1.45.97 4.43 4.43 0 0 0-.94 1.5 5.39 5.39 0 0 0-.33 1.93c0 .7.1 1.34.33 1.92a4.49 4.49 0 0 0 .94 1.51c.4.42.88.75 1.45.98a4.83 4.83 0 0 0 1.87.35c.68 0 1.3-.11 1.87-.35a4.19 4.19 0 0 0 1.45-.98c.4-.43.72-.93.94-1.5a5.39 5.39 0 0 0 .33-1.93m8.23-3.65c.39 0 .73.06 1.04.2.3.12.56.3.77.54a2.4 2.4 0 0 1 .48.84c.1.32.16.68.16 1.07v5.66h1.26V7.74a4.25 4.25 0 0 0-.26-1.5 3.47 3.47 0 0 0-.73-1.19 3.34 3.34 0 0 0-1.17-.79A3.97 3.97 0 0 0 54 3.98c-.57 0-1.08.1-1.54.28-.46.2-.85.46-1.17.8a3.44 3.44 0 0 0-.74 1.18 4.3 4.3 0 0 0-.26 1.5v5.66h1.26V7.75c0-.4.05-.75.16-1.08.11-.32.27-.6.48-.83a2.22 2.22 0 0 1 .78-.55c.3-.14.65-.2 1.03-.2m15.54 3.65c0 .57-.08 1.08-.23 1.53a3.23 3.23 0 0 1-.67 1.15 2.81 2.81 0 0 1-1.04.71 3.56 3.56 0 0 1-1.35.25h-2.22V5.1h2.22c.5 0 .95.09 1.35.26.41.16.76.4 1.04.7.29.32.51.7.67 1.15.15.45.23.96.23 1.53m1.3 0c0-.7-.12-1.33-.34-1.9a4.2 4.2 0 0 0-.93-1.47 4.17 4.17 0 0 0-1.45-.95 5.04 5.04 0 0 0-1.87-.33h-3.49v9.31h3.48a5.04 5.04 0 0 0 1.87-.34 4.12 4.12 0 0 0 1.45-.94c.4-.41.72-.9.94-1.48a5.22 5.22 0 0 0 .33-1.9m16.19-2.73a.3.3 0 0 0 .19-.08l.5-.54a3.98 3.98 0 0 0-1.4-1.04 4.7 4.7 0 0 0-1.96-.37 4.6 4.6 0 0 0-1.83.35 3.96 3.96 0 0 0-1.4.98 4.36 4.36 0 0 0-.9 1.5 5.62 5.62 0 0 0-.31 1.93c0 .7.11 1.35.34 1.93a4.28 4.28 0 0 0 2.44 2.49 5.06 5.06 0 0 0 1.9.34c.68 0 1.27-.1 1.77-.31.5-.22.94-.5 1.32-.87l-.4-.58a.45.45 0 0 0-.11-.1.28.28 0 0 0-.17-.05.32.32 0 0 0-.18.07l-.22.15a4.4 4.4 0 0 1-.31.2 2.87 2.87 0 0 1-.42.19 3.23 3.23 0 0 1-.55.15 3.74 3.74 0 0 1-.74.06c-.5 0-.95-.08-1.37-.25a3.06 3.06 0 0 1-1.06-.74 3.3 3.3 0 0 1-.7-1.15 4.4 4.4 0 0 1-.25-1.53c0-.58.08-1.1.25-1.55.16-.46.39-.84.68-1.16a2.9 2.9 0 0 1 1.02-.71 3.27 3.27 0 0 1 1.28-.25 4.24 4.24 0 0 1 1.36.2 3.7 3.7 0 0 1 1.01.64.34.34 0 0 0 .22.1M99.6 8.74c0 .57-.07 1.09-.23 1.54a3.28 3.28 0 0 1-.66 1.16 2.84 2.84 0 0 1-1.04.72 3.53 3.53 0 0 1-1.37.25c-.5 0-.95-.08-1.36-.25a2.89 2.89 0 0 1-1.04-.72 3.24 3.24 0 0 1-.66-1.16A4.74 4.74 0 0 1 93 8.74c0-.57.08-1.08.24-1.54.15-.45.37-.83.66-1.15a2.85 2.85 0 0 1 1.04-.72 3.52 3.52 0 0 1 1.36-.25c.5 0 .96.08 1.37.25a2.9 2.9 0 0 1 1.7 1.87c.16.46.24.97.24 1.54m1.29 0c0-.7-.11-1.34-.33-1.92a4.42 4.42 0 0 0-.94-1.5 4.14 4.14 0 0 0-1.45-.98 4.86 4.86 0 0 0-1.88-.35c-.68 0-1.3.11-1.87.35A4.18 4.18 0 0 0 93 5.3a4.43 4.43 0 0 0-.93 1.5 5.37 5.37 0 0 0-.34 1.93c0 .7.11 1.34.34 1.92a4.22 4.22 0 0 0 2.39 2.49 4.84 4.84 0 0 0 1.86.35c.69 0 1.31-.11 1.88-.35a4.18 4.18 0 0 0 1.45-.98c.4-.43.71-.93.94-1.5a5.35 5.35 0 0 0 .33-1.93m6.46 4.62a.7.7 0 0 0 .18-.17l5.4-7.02a4.84 4.84 0 0 0-.03.32v6.92h1.1V4.09h-.63a.56.56 0 0 0-.26.05.64.64 0 0 0-.2.17l-5.38 7.02a7.42 7.42 0 0 0 .02-.6V4.08h-1.1v9.31h.65a.6.6 0 0 0 .25-.04m18.16.04v-1.06h-3V4.1h-1.27v8.25h-3.02v1.06zm5.6-4.51h1.32c.37 0 .7.04.97.13.28.1.51.22.7.38a1.63 1.63 0 0 1 .57 1.33c0 .55-.18.97-.55 1.25-.37.29-.91.43-1.63.43h-1.38zm0-.92V4.1h-1.26v9.31h2.63c.6 0 1.1-.06 1.53-.18.43-.12.79-.3 1.07-.52.28-.22.48-.5.62-.81a2.69 2.69 0 0 0 .2-1.07c0-.33-.05-.64-.16-.92a2.53 2.53 0 0 0-.45-.77 2.68 2.68 0 0 0-.72-.58 3.5 3.5 0 0 0-.97-.37c.16-.1.3-.22.42-.4l2.72-3.7h-1.12c-.23 0-.4.1-.5.27l-2.43 3.33a.7.7 0 0 1-.24.22.88.88 0 0 1-.39.07zm16.93.77c0 .57-.08 1.09-.23 1.54a3.26 3.26 0 0 1-.66 1.16 2.86 2.86 0 0 1-1.05.72 3.54 3.54 0 0 1-1.36.25c-.5 0-.95-.08-1.36-.25a2.9 2.9 0 0 1-1.04-.72 3.3 3.3 0 0 1-.67-1.16 4.74 4.74 0 0 1-.23-1.54c0-.57.08-1.08.23-1.54.16-.45.38-.83.67-1.15a2.85 2.85 0 0 1 1.04-.72 3.53 3.53 0 0 1 1.36-.25c.5 0 .96.08 1.36.25a2.82 2.82 0 0 1 1.05.72c.28.32.5.7.66 1.15.15.46.23.97.23 1.54m1.3 0a5.39 5.39 0 0 0-.34-1.92 4.42 4.42 0 0 0-.93-1.5 4.15 4.15 0 0 0-1.45-.98 4.88 4.88 0 0 0-1.88-.35c-.68 0-1.3.11-1.87.35a4.17 4.17 0 0 0-1.45.97 4.47 4.47 0 0 0-.94 1.5 5.46 5.46 0 0 0-.33 1.93c0 .7.11 1.34.33 1.92a4.22 4.22 0 0 0 2.39 2.49 4.83 4.83 0 0 0 1.87.35 4.8 4.8 0 0 0 1.88-.35 4.2 4.2 0 0 0 1.45-.98c.4-.43.71-.93.93-1.5a5.39 5.39 0 0 0 .33-1.93m5.87-3.58h4.03V4.09h-5.3v9.31h1.27z"/>
  </g>
</svg>
