<svg xmlns="http://www.w3.org/2000/svg" viewBox="119 85 604 430">
  <defs>
    <linearGradient id="a" x1="246.3" x2="590.3" y1="228.94" y2="228.94" gradientUnits="userSpaceOnUse">
      <stop stop-color="#2197D3" offset="0"/>
      <stop stop-color="#194890" offset="1"/>
    </linearGradient>
  </defs>
  <g fill="url(#a)">
    <path d="M416.9 85.5h10.3c16.4 1.3 32.5 9.2 42.5 22.4 3.5 4.3 2 11.7-3 14.2-4.2 2-9.4.6-12.4-2.8-8.3-8.9-20-14.8-32.3-14.8-7.5-.2-15 1.9-21.7 5.3-13.2 6.9-22.2 20.9-23.3 35.8-.2 3-1.1 6.3-3.8 8-3.1 1.8-7.1 1.6-10.4.1-3.5-1.5-5.1-5.6-4.8-9.2.3-12.7 5-25.2 13-35 11.1-13.9 28.4-22.3 45.9-24zM524.1 105.4c6.1-1.8 12.5-3.5 18.9-2.7 3.2.5 2.9 4.6 2.9 7-.9 10.6-4.7 20.7-9.1 30.3-9.8 21.4-25.1 40.1-43.7 54.4-1.8 7.6-3.5 15.2-5.5 22.7-6.8 5.8-13.4 12-20.7 17.2-1-1.1-1.7-2.4-1.9-3.8-1.6-6-3.4-12-5-17.9 3.4-2.8 5.9-6.8 6.5-11.2 1.5-8.4-4.2-17.2-12.4-19.5-7.1-2.3-15.4.7-19.5 6.9-6.5-2.1-13.1-4-19.5-6.3-.2-.5-.5-1.4-.6-1.9 5.2-6.7 10.8-13 16.3-19.4 7.5-2.6 15.5-3.9 23.1-5.9 17.6-23.3 42.3-41.2 70.2-49.9zm-21.5 24.7c-7.5 3-8.6 14.4-1.8 18.8 6.1 4.9 16 .7 17.1-6.9 2-8.1-7.8-16-15.3-11.9z"/>
    <path d="M543.8 159.1c1.7-5.4 8.9-8.1 13.7-4.9 13.6 8.6 24.4 21.4 30.9 36.1 7.8 17.6 9.1 37.9 3.6 56.3-4.6 15.7-14 29.9-26.7 40.1-14.8 12.1-34 18.9-53.1 18.4-18 .1-35.9-6.3-50.1-17.4-5.8-4.5-10.6-10.2-15.9-15.3-6.2-5.7-12-11.8-18-17.7 4.6-4.5 9-9.1 13.7-13.6l24.9 24.9c8.1 8.6 18.6 14.9 29.9 18.1 14.9 4.1 31.4 2.4 45.2-4.6 14.3-7.1 25.7-20 31-35 4.6-12.8 5-27.1.8-40-4.4-14-13.8-26.3-26.1-34.2-3.8-2.3-5.2-7.2-3.8-11.2zM278.3 168.7c14.5-9.1 31.8-13.5 48.8-12.3 20.4.9 40.4 9.9 54.4 24.8 8.3 8.4 16.9 16.3 25.1 24.8l-13.5 13.5c-9.2-9.1-18.6-18.1-27.7-27.4-10.6-9.3-24-15.9-38.3-16.9-16.1-1.3-32.7 3.9-45.2 14.1-13.6 11-22.1 27.8-23 45.2-1.5 22 9.8 44.1 28.2 56.2 3.2 1.8 5.3 5.3 4.9 9 .1 6.5-8 11-13.6 7.9-14.3-8.9-25.6-22.4-32.1-37.9-7.7-18.2-8.4-39.2-2-57.9 5.8-17.7 18.1-33.2 34-43.1zM404.5 231.1c4.5-4.6 9.1-9.1 13.6-13.7 4 4.1 8.4 7.8 12.2 12.1-4.6 4.5-9 9.1-13.6 13.5-4-4.1-8.1-8-12.2-11.9z"/>
  </g>
  <path d="M131.1 357.5c15.2-19 46.3-21.1 64.5-5.4 19 15.9 20.5 47.7 4 65.9-15.4 17.4-44.6 19.1-62.4 4.6-9.4-7.5-14.9-19-16.1-30.8v-9.4c.9-9 4.1-17.9 10-24.9zm28.6-4.1c-8.4 1.5-16.1 6.7-20.6 14-8.8 14-6.9 34.4 5.5 45.7 11.9 11.1 32.7 10.7 44.1-1.1 13.2-13.3 12.9-37.4-.5-50.5-7.5-7.2-18.5-10-28.5-8.1zM573.7 342.3c13.7-2.3 28.7 1.2 39 10.8 18.1 16.4 19 47.6 2.4 65.4-16.4 18.1-47.9 18.5-65.1 1.3-16.7-16.4-17.5-45.9-2-63.4 6.5-7.6 15.8-12.6 25.7-14.1zm2 11.1c-8.8 1.5-16.7 7-21.1 14.7-8.4 14.2-6.3 34.6 6.5 45.6 12.6 11 34.1 9.8 44.9-3.3 11.6-13.6 11-36.3-1.9-48.8-7.3-7.3-18.4-10.1-28.4-8.2zM230.4 343.8h30.9c7.2.2 15 1.9 20.2 7.2 5 5.1 6.1 12.8 4.7 19.5-1.5 6.9-7.5 11.8-13.9 14 4.8.6 9.3 2.8 12.5 6.4 7.5 8.2 7.7 22.2 0 30.3-5.6 5.8-13.8 8.5-21.7 8.8h-32.8c.1-28.7 0-57.5.1-86.2zm12 10.5v25.2h16.8c4.3-.1 8.9-1.2 11.9-4.4 3.9-4.4 3.9-11.5.5-16.1-2.4-3.3-6.6-4.7-10.5-4.8-6.2.1-12.5.1-18.7.1zm0 65.5c6.2-.1 12.5.2 18.7-.1 5.6-.3 11.7-2.2 14.9-7.2 3.1-5.4 2.4-12.9-1.9-17.5-3.7-3.6-9-4.8-14-4.9h-17.7c-.1 9.9 0 19.8 0 29.7zM311.9 343.8h12v75.3h39.5v11h-51.5c0-28.8-.1-57.6 0-86.3zM379.6 343.8h11.8V430h-11.8v-86.2zM410 343.8h13.8c8.4 23.3 16.8 46.7 25.3 69.9 8.8-23.3 17.5-46.7 26.3-70 4.3.1 8.7-.1 13 .1-11.3 28.7-22.6 57.5-34 86.2h-11.3c-11-28.7-22.1-57.4-33.1-86.2zM505.6 343.8h11.8v86.3h-11.8v-86.3zM646.4 343.8h15.5c15.9 23.6 31.7 47.2 47.5 70.9v-70.9h11.8V430h-14.9c-16.1-23.4-31.8-47-47.9-70.5V430h-12c-.1-28.7 0-57.5 0-86.2z"/>``
  <path d="M173.3 476.7c6.6-8.9 21.6-9.8 29-1.4-1.4 1.3-2.9 2.4-4.4 3.6-4.3-5.3-12.7-5.7-17.8-1.3-7.2 6-7 18.9.8 24.3 5.5 3.9 13.8 2.7 17.7-2.8 1.5 1.2 3 2.3 4.4 3.5-7.3 9.3-23.2 8.7-29.9-1-5.4-7.2-5.2-17.9.2-24.9zM253.6 470.2c7.3-2 16-.2 20.9 5.9 7.1 8.3 6 22.4-2.8 29.1-8.9 7-23.9 4.6-29.3-5.7-6.2-10.5-1.1-26.3 11.2-29.3zm3.7 4.4c-6.1.7-10.9 6-11.6 12-1.8 8.3 4.6 17.7 13.5 17.5 8.3.5 15.1-7.5 14.3-15.5 0-8.3-7.9-15.5-16.2-14zM397.6 478.1c5.9-10.1 22.5-11.9 29.9-2.6-1.5 1.1-3 2.3-4.5 3.4-3.9-5-11.6-5.7-16.7-2.1-7.6 5.3-8.5 17.8-1.5 24 5.3 4.9 14.8 4.4 18.9-1.8 1.5 1.1 3 2.3 4.5 3.5-6.9 9-22.1 8.7-29.1 0-5.6-6.7-6.1-17-1.5-24.4zM448.6 470.2c7.1-1.9 15.4-.2 20.3 5.4 7.3 8 6.7 22.1-1.8 29.1-7.4 6.2-19.4 5.9-26.5-.8-7.4-7-8-19.6-1.7-27.4 2.5-3.1 5.9-5.3 9.7-6.3zm1.1 5c-9 2.9-11.9 14.9-7.1 22.4 3.9 6.8 14.1 8.4 20.2 3.6 7.2-5.6 7.4-17.8.4-23.7-3.7-3-9-3.8-13.5-2.3zM613.7 470.3c6.4-1.7 13.8-.7 18.9 3.8 8.8 7.4 8.8 22.6.3 30.2-6.4 5.7-16.5 6.3-23.7 2.1-5.3-3.1-8.6-8.9-9.1-14.9-1.3-9.2 4.4-19 13.6-21.2zm1.8 4.8c-9.3 2.6-12.6 15-7.5 22.7 3.9 6.7 13.9 8.4 20 3.7 7.3-5.5 7.6-17.5.9-23.6-3.7-3.2-8.9-4.2-13.4-2.8zM212.6 470.6h5.3v32.5h17.2v5h-22.5v-37.5zM289.9 470.5h5.3v23.1c0 2.6.8 5.3 2.4 7.4 2.8 3.4 8.1 4 11.8 1.8 3-2 4.4-5.7 4.3-9.2v-23h5.5v23.1c0 4-1.1 8.2-3.9 11-5.7 6.3-17.1 5.9-22.3-.8-2.1-2.6-3.1-6-3-9.3-.1-8.1-.2-16.1-.1-24.1zM332.6 470.6c8.2.6 17.3-1.8 24.8 2.8 9 5.5 10.9 19.4 4.3 27.5-3.4 4.5-9.1 6.9-14.6 7.2h-14.4c-.1-12.6-.1-25-.1-37.5zm5.3 4.9V503c4.2-.1 8.6.5 12.7-.9 4.2-1.4 7.8-4.7 8.9-9.1 1.5-5.8-.6-12.8-6.1-15.7-4.8-2.7-10.4-1.5-15.5-1.8zM483.3 470.6c2.3 0 4.7 0 7-.1 6.9 10.2 13.6 20.4 20.5 30.5v-30.4h5.3v37.5h-6.8c-6.7-10.2-13.7-20.2-20.4-30.3v30.4h-5.5c-.1-12.6 0-25.1-.1-37.6zM526.3 470.5h29.5v5h-12.3V508h-5.3v-32.5h-12c.1-1.6.1-3.3.1-5zM565.9 470.5c5.4.1 10.9-.1 16.3.1 5.1.3 9.5 4.8 9.2 10 .5 5.3-4 9.7-9 10.6l10.5 16.8h-6.7c-3.2-5.5-6.4-11-9.5-16.5h-5.3V508h-5.5v-37.5zm5.5 4.5v12c3.8-.1 7.7.4 11.4-.9 4-1.7 4-8.5 0-10.2-3.7-1.3-7.7-.7-11.4-.9zM650.6 470.6h5.3v32.5h17.3v5h-22.5c-.1-12.5-.1-25-.1-37.5z" fill="#1B82C5"/>
</svg>
