<svg width="196" height="60" xmlns="http://www.w3.org/2000/svg">
  <defs>
    <linearGradient x1="0%" y1="50%" y2="50%" id="a">
      <stop stop-color="#EE2A7B" offset="0%"/>
      <stop stop-color="#BE1E2D" offset="100%"/>
    </linearGradient>
    <linearGradient x1="0%" y1="50%" y2="50%" id="b">
      <stop stop-color="#F7A51D" offset="0%"/>
      <stop stop-color="#D4605C" offset="100%"/>
    </linearGradient>
    <linearGradient x1="62.9%" y1="50%" x2="99.6%" y2="50%" id="c">
      <stop stop-color="#0076C0" offset="0%"/>
      <stop stop-color="#B0CBEA" offset="100%"/>
    </linearGradient>
    <linearGradient x1="99%" y1="60.2%" x2="-2.1%" y2="33.4%" id="d">
      <stop stop-color="#669C54" offset="0%"/>
      <stop stop-color="#ADD7A1" offset="100%"/>
    </linearGradient>
  </defs>
  <g class="logo__image">
    <path fill="url(#a)" d="M15.9 4.8c-5 3.5-6.6 11-4.8 17 2 7 10 9 14.2 14A8.2 8.2 0 0 1 23 48.3c-5.4 2.9-11.5.3-15.9-4.4C2.8 39-1.2 30.4.5 22.9A23 23 0 0 1 15.9 4.8"/>
    <path fill="url(#b)" d="M22.6 29.6c-7.6-4.1-8.6-9.7-8.8-11.7-1.2-13.1 14.3-20 25.9-17 12.1 3.2 12.6 13.2 12.6 13.2-11.6-2-22.6-.2-27.4 5.3-5 5.8-2.3 10.2-2.3 10.2z"/>
    <path fill="url(#c)" d="M23.9 20.8c1.2-1.4 3.2-2 5-2.3 18.8-2.2 29.3 15 20 31.2a21.7 21.7 0 0 1-29.4 7.4 35 35 0 0 1-5.3-4s-.8-1 0-1.6c.6-.2 1.8.2 1.8.2a18.8 18.8 0 0 0 22.2-20.2c-.6-7.5-10.2-13.2-15-9.7 0 0 .2-.5.7-1z"/>
    <path fill="url(#d)" d="M23.2 21.8c2.7-5 6.4-7.2 11.9-8.2 6.2-1.2 14-1.4 19.7 1.5 7.5 3.7 10.7 13.7 8.4 21.4-1.8 6.4-8 12.3-14.7 13.8.5-.1 1-1.7 1.4-2.6 3-7.9 2.4-18.1-4.2-23.8a21 21 0 0 0-18.5-4.6c-1 .3-3.4 1.4-4 2.5z"/>
  </g>
  <path d="M93.7 47.8h-3.6a.8.8 0 0 1-.8-.7v-7c-1.5.2-2.8.2-3.8.2-6.3 0-9.3-3.7-9.3-9.9v-3c0-6.2 3-10 9.3-10 2.5 0 5.5.5 8 1.1.8.2 1 .5 1 1v27.6c0 .4-.4.7-.8.7zM89.3 22c-.7-.1-2.4-.3-3.8-.3-3.3 0-4.2 2.4-4.2 5.7v3c0 3.3.9 5.7 4.2 5.7 1 0 2.7-.1 3.8-.3V22zm20.9-8.6h-1.8c-1.9 0-2.3.5-2.3 2.4v2h3.8c.4 0 .8.3.8.7V21c0 .4-.4.8-.8.8H106v17.5c0 .4-.4.8-.8.8h-3.6a.9.9 0 0 1-.8-.8V21.7l-3.5-.6c-.4 0-.8-.3-.8-.7v-1.9c0-.4.4-.7.8-.7h3.5v-2c0-5 2.7-6.3 6.8-6.3 1 0 1.6.2 2.4.3.3 0 .7.3.7.6v2.4c0 .4-.3.6-.6.6zm10.7 26.9c-6.2 0-9.4-4.1-9.4-9.8v-3.2c0-5.6 3.2-9.8 9.4-9.8 6.1 0 9.3 4.2 9.3 9.8v3.2c0 5.7-3.2 9.8-9.3 9.8zm4.2-13c0-3.2-1.5-5.3-4.2-5.3-2.8 0-4.2 2-4.2 5.3v3.2c0 3.2 1.4 5.3 4.2 5.3 2.7 0 4.2-2 4.2-5.3v-3.2zm19.2-5.4a11 11 0 0 0-5.4 1.4v15.9c0 .4-.4.8-.8.8h-3.6a.8.8 0 0 1-.8-.8V18.5c0-.4.3-.8.8-.8h3.4c.4 0 .8.4.8.8v.9a9 9 0 0 1 5.6-2c.4 0 .8.4.8.9V21c0 .4-.4.8-.8.8zM174.8 40h-3.6a.9.9 0 0 1-.8-.8V25.8c0-3-.6-3.9-2.8-3.9-.7 0-2.2.3-3.6 1l.1 2.9v13.4c0 .4-.3.8-.8.8h-3.6a.9.9 0 0 1-.8-.8V25.8c0-3-.5-3.9-2.7-3.9-.8 0-2 .5-3.6 1.3v16c0 .4-.3.8-.8.8h-3.6a.9.9 0 0 1-.8-.8V18.5c0-.4.4-.8.8-.8h3.4c.5 0 .8.4.8.8v.9c1.7-1.1 3.3-2 5.6-2s3.7.7 4.6 1.9c2-1.2 3.8-1.8 6.5-1.8 5.3 0 6.5 3.6 6.5 8.3v13.4c0 .4-.3.8-.8.8zm20.6 0H192a.8.8 0 0 1-.8-.8v-.6a10.6 10.6 0 0 1-5.5 1.7c-3.3 0-6.8-1.2-6.8-6.6v-.1c0-4.5 2.8-6.8 9.6-6.8h2.5V25c0-2.6-1.2-3.2-3.5-3.2-2.5 0-5.1.2-6.4.3h-.2c-.4 0-.7 0-.7-.6v-2.6c0-.4.2-.7.7-.8 1.6-.3 3.9-.6 6.6-.6 5.6 0 8.6 2.5 8.6 7.5v14.2c0 .5-.3.8-.7.8zm-4.4-9.8h-2.5c-3.6 0-4.4 1.2-4.4 3.4v.1c0 2 .9 2.5 2.9 2.5 1.4 0 2.8-.5 4-1.1v-4.9z" fill="#2F3B49"/>
</svg>
