<svg xmlns="http://www.w3.org/2000/svg" width="2126" height="708.7">
  <path fill="#24357F" d="M254.8 142H36.4v50.8h68.3v232.6h65.6V192.8h70zm139.4 284.3c78.6 0 100.5-41.2 100.5-85.7V142H433v184.6c0 31.3-11.5 47.3-38.7 47.3-27.1 0-38.7-16-38.7-47.3V141.9h-61.8v198.7c0 44.5 22 85.7 100.5 85.7m401.2-117.9h-56v-.7c0-12 3.2-40 28-40 6.5 0 28-.4 28 36.7v4zm50.2 21.9c0-59-22-98.1-78.2-98.1-53 0-81.2 40.8-81.2 98 0 35.3 14.7 96 90.7 96 30.8 0 55-16.2 66.6-25.6l-18.9-29S806 390 777.2 390c-27 0-38.5-19.5-38.5-46.5h107v-13.3z"/>
  <path fill="#CF285A" d="M573.7 496.2L695.7 71h-45.4l-122 425.2z"/>
  <path fill="#24357F" d="M1975.5 160.7H1963c0-6.6 1-14.4 1-14.4l-8.2 1.8s-.8 7.8-.8 12.6h-6.5v6h6.5v34.1c0 5 1.3 8.2 4.8 10a18.4 18.4 0 0 0 15.3-.6l-1-5a10 10 0 0 1-5 1c-4.9 0-6.4-2-6.4-7.5v-32h10.4l2.4-6zm-39.3-15.4a6 6 0 0 0-6-6 6.1 6.1 0 0 0-6.2 6.1 6 6 0 0 0 6.1 6 6 6 0 0 0 6.1-6m-2.2 65.1v-50.9l-8 1.3v49.6h8zm-33.4-29.5h-22.8c.4-10.3 4.4-15.5 11.5-15.5 3.8 0 7.3 1.7 9 4.4 1.5 2.4 2.2 5.7 2.3 11.1m8.3 6v-1.2c0-11.9-1.4-16.6-5.7-21a18.4 18.4 0 0 0-13.5-5.4c-6 0-10.9 2.2-14.9 7-4.2 5-6 10.3-6 18.7 0 16.5 8.3 26.5 22.1 26.5 6.4 0 12.4-2.2 16.8-6.2l-3-5a17.1 17.1 0 0 1-12.2 4.7c-5 0-9.6-1.8-12.4-6a19.9 19.9 0 0 1-2.3-11V187h31.1zm-50-26.3h-12.6c0-6.6 1-14.4 1-14.4l-8.2 1.8s-.8 7.8-.8 12.6h-6.5v6h6.5v34.1c0 5 1.3 8.2 4.8 10a18.4 18.4 0 0 0 15.3-.6l-1-5a10 10 0 0 1-5 1c-4.9 0-6.4-2-6.4-7.5v-32h10.4l2.4-6zm-39.4-15.4c0-3.4-2.7-6-6-6s-6.2 2.7-6.2 6.1c0 3.3 2.7 6 6.1 6s6.1-2.7 6.1-6m-2.2 65.1v-50.9l-8 1.3v49.6h8zm-24-14.8c0-7.4-4.4-12-13.4-13.9l-6.6-1.4c-5.3-1-7.2-3.4-7.2-7.2 0-4.9 3.7-8.2 9.4-8.2 4.4 0 8.1 1.5 12.5 3.6l3-5.8c-4.3-2.4-10-4-15.3-4-10.4 0-17.7 6.3-17.7 15.3 0 7 4.4 12 12.6 13.7l6.2 1.3c5.7 1.2 8.2 3.7 8.2 8.2 0 5.3-4 8.6-10 8.6a30 30 0 0 1-15.9-4.7l-3 5.8c5.1 3.1 12 5 18.3 5 11.2 0 18.8-6.6 18.8-16.3m-42.6-36s-1.4-.5-2.7-.5c-5 0-10.4 3.2-14 8.3a18 18 0 0 0-1.6-8l-7.8 2s1.7 3.3 1.7 10.6v38.4h7.8v-31.2c0-4 .6-5.6 3-7.9s5.2-3.6 8.2-3.6c.8 0 1.7.2 2.2.4l3.2-8.5zM1701 181h-22.8c.4-10.3 4.4-15.5 11.5-15.5 3.8 0 7.3 1.7 9 4.4 1.5 2.4 2.2 5.7 2.3 11.1m8.3 6v-1.2c0-11.9-1.4-16.6-5.7-21a18.4 18.4 0 0 0-13.5-5.4c-6 0-10.9 2.2-14.9 7-4.2 5-6 10.3-6 18.7 0 16.5 8.3 26.5 22.1 26.5 6.4 0 12.4-2.2 16.8-6.2l-3-5a17.1 17.1 0 0 1-12.2 4.7c-5 0-9.6-1.8-12.4-6a19.9 19.9 0 0 1-2.3-11V187h31.1zm-49.6-26.3h-8.3l-11.4 33.1c-1.6 4.5-2.4 8.4-2.4 8.4h-.2s-1-4.4-2.4-8.5l-11.6-34.3-8 1.7 18 50h7.6l18.7-50.4zm-55-15.4c0-3.4-2.8-6-6.2-6s-6 2.7-6 6.1a6 6 0 0 0 12.2-.1m-2.3 65.2v-50.9l-8 1.3v49.6h8zm-29 0v-37.8c0-2-.5-4-1.3-5.8-2-4.4-6.8-7.3-12.2-7.3-5.3 0-10.5 2.5-15.7 7.7 0-4.1-1.8-7.8-1.8-7.8l-7.6 2.1s2 3.4 2 10.5v38.4h7.5v-37.1a23 23 0 0 1 13.8-7c2.3 0 4.4.8 5.5 2.1 1.4 1.7 1.8 3 1.8 8.3v33.7h8zm-57.2-19.8V142h-8v47.8c0 4.6-.4 7.6-2.7 10.7-2 2.8-6.4 4.3-12 4.3-8.5 0-12.2-3.7-13.5-6.7-.9-2-1.2-6.5-1.2-9.9V142h-8v49.2c0 3 .1 7.4 2 10.7 3.6 6.8 9.6 10 20.2 10 8.3 0 13.8-1.8 18-5.4 4.1-3.5 5.2-7.4 5.2-15.7m-95.3-9.7H1398c.4-10.3 4.4-15.5 11.5-15.5 3.8 0 7.3 1.7 9 4.4 1.5 2.4 2.2 5.7 2.3 11.1m8.3 6v-1.2c0-11.9-1.4-16.6-5.7-21a18.4 18.4 0 0 0-13.5-5.4c-6 0-10.9 2.2-14.9 7-4.2 5-6 10.3-6 18.7 0 16.5 8.3 26.5 22.1 26.5 6.4 0 12.4-2.2 16.8-6.2l-3-5a17.1 17.1 0 0 1-12.2 4.7c-5 0-9.6-1.8-12.4-6a19.9 19.9 0 0 1-2.3-11V187h31.1zm-58 23.5v-35.7c0-3.6-.3-5.2-.9-7.2-1.4-4.6-6.8-7.9-12.8-7.9-6.4 0-12 3.7-16.6 8 0 0 .3-3.7.3-6.9v-11.6c0-7.6-1.3-11.8-1.3-11.8l-7.8 1.5s1.3 3.7 1.3 10.2v61.4h7.8v-35.4c4.3-5.3 9.7-8.4 14.5-8.4 2.5 0 4.6.8 5.8 2 1.4 1.4 2 3.7 2 7.4v34.4h7.6zm-51.3-5.5l-4.3-5a13.9 13.9 0 0 1-10.7 5.4c-8 0-12.3-6.1-12.3-17.3 0-7.3 1-12.8 2.8-16.3 1.8-3.4 5.5-5.6 9.4-5.6 3.8 0 6 1.1 9.5 4l4.3-5.4c-3.6-3-7.3-5.4-13.6-5.4-5.3 0-9.6 1.9-13.5 5.8-4.3 4.3-7.5 10.3-7.5 21.2 0 7.4 1.5 12.9 4.8 17.7 3.5 5 8.8 7.5 16 7.5 6.1 0 10.5-1.9 15.1-6.6m-49.4-9.3c0-7.4-4.3-12-13.3-13.9l-6.6-1.4c-5.3-1-7.2-3.4-7.2-7.2 0-4.9 3.7-8.2 9.4-8.2 4.4 0 8.1 1.5 12.5 3.6l3-5.8c-4.3-2.4-10-4-15.3-4-10.4 0-17.7 6.3-17.7 15.3 0 7 4.4 12 12.6 13.7l6.2 1.3c5.7 1.2 8.2 3.7 8.2 8.2 0 5.3-4 8.6-10 8.6a30 30 0 0 1-15.9-4.7l-3 5.8c5.1 3.1 12 5 18.3 5 11.2 0 18.8-6.6 18.8-16.3m-50.9-50.4c0-3.4-2.7-6-6-6s-6.2 2.7-6.2 6.1c0 3.3 2.7 6 6.1 6s6.1-2.7 6.1-6m-2.2 65.1v-50.9l-8 1.3v49.6h8zm-29 0v-37.8c0-2-.5-4-1.3-5.8-2-4.4-6.8-7.3-12.2-7.3-5.3 0-10.5 2.5-15.7 7.7 0-4.1-1.8-7.8-1.8-7.8l-7.6 2.1s2 3.4 2 10.5v38.4h7.5v-37.1a23 23 0 0 1 13.8-7c2.3 0 4.4.8 5.5 2.1 1.4 1.7 1.8 3 1.8 8.3v33.7h8zm-57.7 0v-35.7c0-3.6-.2-5.2-.8-7.2-1.4-4.6-6.8-7.9-12.8-7.9-6.4 0-12 3.7-16.6 8 0 0 .3-3.7.3-6.9v-11.6c0-7.6-1.3-11.8-1.3-11.8l-7.8 1.5s1.3 3.7 1.3 10.2v61.4h7.8v-35.4c4.3-5.3 9.7-8.4 14.5-8.4 2.5 0 4.6.8 5.8 2 1.4 1.4 2 3.7 2 7.4v34.4h7.6zm-51.2-5.5l-4.3-5a13.9 13.9 0 0 1-10.7 5.4c-8 0-12.3-6.1-12.3-17.3 0-7.3 1-12.8 2.8-16.3 1.8-3.4 5.5-5.6 9.4-5.6 3.8 0 6 1.1 9.5 4l4.3-5.4c-3.6-3-7.3-5.4-13.6-5.4-5.3 0-9.6 1.9-13.5 5.8-4.3 4.3-7.5 10.3-7.5 21.2 0 7.4 1.5 12.9 4.8 17.7 3.5 5 8.8 7.5 16 7.5 6.1 0 10.5-1.9 15.1-6.6m-58.2-24h-22.8c.4-10.3 4.4-15.5 11.5-15.5 3.8 0 7.3 1.7 9 4.4 1.5 2.4 2.2 5.7 2.3 11.1m8.3 6v-1.2c0-11.9-1.4-16.6-5.7-21a18.4 18.4 0 0 0-13.5-5.4c-6 0-10.9 2.2-14.9 7-4.2 5-6 10.3-6 18.7 0 16.5 8.3 26.5 22.1 26.5 6.4 0 12.4-2.2 16.8-6.2l-3-5a17.1 17.1 0 0 1-12.2 4.7c-5 0-9.6-1.8-12.4-6a19.9 19.9 0 0 1-2.3-11V187h31.1zm-42-45H942v6.8h18.4v61.7h8v-61.7h18.5l.5-6.9zM1413.7 318v-37.5c0-3.2-.3-5.4-1-7.3-1.6-4.4-6.6-7.4-12.3-7.4-3 0-6.5.8-9.2 2.2a61 61 0 0 0-6 3.8c0-2-.6-4.3-1.8-6.4l-12 3.4a37 37 0 0 1 1.9 12V318h13.4v-36.2c3-2.8 6.6-4.6 9.3-4.6 3.5 0 4.5 1.7 4.5 7.5V318h13.2zm-66.8-31.3h-15.5v-.2c0-7 2.9-11 8-11 2.7 0 4.6 1 5.9 3 1.2 1.8 1.6 3.8 1.6 7.6v.6zm13.9 9.8v-3c0-10.8-2.1-17.7-6.8-22.5a21 21 0 0 0-14.8-5.4c-6.8 0-12 2.2-16.1 7-4.5 5-6.4 11-6.4 20.2 0 16.1 9.5 26.5 24.2 26.5 7.2 0 13.4-2.3 19.3-7l-5.2-8a20 20 0 0 1-13 5c-7 0-10.8-4.5-10.8-12.4v-.4h29.6zm-49.6-29.8h-14l-7 21.5c-1.5 5.1-2.6 10-3 13a150 150 0 0 0-3.3-12.3l-7.4-23-13.7 1.6 18.6 50.4h11l18.8-51.2zm-67.5 25.3c0 12.1-2.5 17.3-8.3 17.3a7.4 7.4 0 0 1-6.8-4.2c-1.1-2.6-1.7-7-1.7-12.9 0-5 .5-8.7 1.4-11.4a7.2 7.2 0 0 1 6.9-5.2c2.4 0 4.5 1 5.8 2.7 1.8 2.3 2.7 6.8 2.7 13.7m14.6.1c0-8.3-1.8-13.9-6-18.7a21.5 21.5 0 0 0-17.3-7.7c-13.8 0-23 10.7-23 26.8s9 26.5 23 26.5a21 21 0 0 0 16.9-7c4.4-5 6.4-11 6.4-19.9m-59.8 25.8v-35.8a24 24 0 0 0-1.3-9.5c-1.6-4.5-6.8-7.3-13.3-7.3-5.2 0-11 2.2-14.5 5.5l.2-4.3v-10.2a69 69 0 0 0-1-12.5L1155 247c.6 2.1 1 7 1 11.7V318h13.6v-36.7c3-2.7 7.3-4.7 10.6-4.7 3.8 0 5.2 2 5.2 7V318h13zm-72.6-13.3a9.6 9.6 0 0 1-6.6 3.3c-7 0-9.3-3.6-9.3-14.6 0-11.4 2.6-16.4 8.6-16.4 2.4 0 4.8 1.1 7.3 3.3v24.4zm15 13.3a50 50 0 0 1-2-18.7V246l-13.2-2v17.5c0 3 .2 6.5.4 7.6-2.5-2-5.4-2.9-9.1-2.9-13 0-22 11-22 27s8.3 26 21.3 26c4.6 0 8.5-1.4 11.8-4.3.2 1.4.4 2.2.8 3h12zm-59.8 0v-37.4c0-3.2-.3-5.4-1-7.3-1.6-4.4-6.6-7.4-12.3-7.4-3 0-6.5.8-9.2 2.2a61 61 0 0 0-6 3.8c0-2-.6-4.3-1.8-6.4l-12 3.4a37 37 0 0 1 1.9 12V318h13.4v-36.2c3-2.8 6.6-4.6 9.3-4.6 3.5 0 4.5 1.7 4.5 7.5V318h13.2zm-55.8-65.3c0-4.6-3.6-8.3-8.1-8.3a8.4 8.4 0 0 0-8.4 8.3 8.3 8.3 0 1 0 16.5 0m-1.6 65.3v-52.4l-13.4 2.1V318h13.4zm-25.4 0v-12H972v-18.6h19.7V276h-20v-16h23.9l1.8-11.5h-39.6V318h40.5zm1034.9 57.7h-9l-9.7 32.7-3.1 10.5h-.2s-1.5-7.7-3-12.4L1998 374l-7.7 2.6 10.7 31.2a199 199 0 0 1 5 17.9l3.2-.5c-2.7 10-5.1 13.3-11.5 15.3l2.3 5.3c8.7-2.1 12.8-8.7 16-18.7l17.2-51.6zm-65.3 15.4c0 6.7-3 10.2-9 10.2-6.3 0-9.6-3.5-9.6-10 0-6.8 3.2-10.2 9.4-10.2 6.6 0 9.2 3.2 9.2 10m17.9-11l-4.8-4.8a11.3 11.3 0 0 1-7 2.2c-6 0-7.5-2.8-15.1-2.8-11 0-18.4 6.8-18.4 16.8 0 6.6 4.5 12.3 11.2 14.4-6.8 2-9 4.5-9 8.5 0 4.5 3.5 7.2 9.4 7.2l7.7-.1c4.9 0 7.9.5 9.8 1.8 1.8 1.2 2.7 3.3 2.7 6 0 6.2-4.4 8.7-12.1 8.7-4 0-7.7-1-10.1-2.3a6.6 6.6 0 0 1-3-5.8c0-1.6.8-3.4 1.5-4.5l-8.2.7c-.7 2-1 3.5-1 5.3 0 7 6 12.7 21.6 12.7 12 0 19.8-5 19.8-15.7a12 12 0 0 0-5.5-10.5c-3-2.1-6.2-2.8-12-2.8h-8c-2.5 0-4-1-4-2.4 0-1.7 2.3-3.4 9-5.8 3.6 0 6.8-.6 9.3-2.2 4.6-3 7.4-8.1 7.4-13.7 0-3.2-1-6-3-8.5.9.4 2 .6 3.4.6 3 0 5.3-.8 8.4-3m-68.3 21.9c0 4.9-.4 7.7-1.5 10.8a10.8 10.8 0 0 1-10.8 7.5c-4.3 0-8.3-2-10.1-5a35 35 0 0 1-3.1-16.3c0-6 .8-10 2.4-13 1.7-3.3 5.8-5.4 10.2-5.4 4 0 8.5 2 10.6 6.4 1.6 3.3 2.3 8 2.3 15m8.9-.6c0-8.1-1.5-14-4.6-18.5a19.7 19.7 0 0 0-17.1-8.7c-13.1 0-21.2 9.9-21.2 26 0 16.5 7.8 26.6 21.5 26.6 12.5 0 21.4-8.8 21.4-25.4m-55 24l-1.6-5.1-1 .2c-2.2 0-2.8-1.1-2.8-5v-51c0-7.5-1.3-11.7-1.3-11.7l-7.8 1.5s1.2 3.7 1.2 10.2v52.8c0 3.6.8 5.7 2.4 7a8.4 8.4 0 0 0 5.9 2.2c2 0 3-.2 5-1.1m-39.2-23.4c0 4.9-.4 7.7-1.5 10.8a10.8 10.8 0 0 1-10.8 7.5c-4.3 0-8.3-2-10.1-5a35 35 0 0 1-3.1-16.3c0-6 .8-10 2.4-13 1.7-3.3 5.8-5.4 10.2-5.4 4 0 8.5 2 10.6 6.4 1.6 3.3 2.3 8 2.3 15m8.9-.6c0-8.1-1.5-14-4.6-18.5a19.7 19.7 0 0 0-17.1-8.7c-13.1 0-21.2 9.9-21.2 26 0 16.5 7.8 26.6 21.5 26.6 12.5 0 21.4-8.8 21.4-25.4m-60.4 24v-37.7c0-2-.4-4-1.2-5.8-2-4.4-6.8-7.3-12.2-7.3-5.3 0-10.5 2.5-15.7 7.7 0-4.1-1.8-7.8-1.8-7.8l-7.6 2s1.9 3.5 1.9 10.6v38.4h7.6v-37.1a23 23 0 0 1 13.8-7c2.3 0 4.4.8 5.5 2 1.4 1.8 1.8 3 1.8 8.4v33.7h7.9zm-57.6 0v-35.6c0-3.6-.2-5.2-.8-7.2-1.4-4.6-6.8-8-12.8-8-6.4 0-12.1 3.8-16.6 8 0 0 .3-3.6.3-6.8V364c0-7.6-1.3-11.8-1.3-11.8l-7.8 1.5s1.3 3.7 1.3 10.2v61.4h7.8V390c4.3-5.3 9.7-8.4 14.5-8.4 2.5 0 4.6.8 5.8 2 1.4 1.4 1.9 3.7 1.9 7.4v34.4h7.7zm-51.2-5.4l-4.3-5a13.9 13.9 0 0 1-10.7 5.4c-8 0-12.3-6.1-12.3-17.3 0-7.3.9-12.8 2.8-16.3 1.8-3.4 5.5-5.6 9.4-5.6 3.8 0 6 1 9.5 4l4.3-5.4c-3.6-3-7.3-5.4-13.6-5.4-5.3 0-9.6 1.9-13.5 5.8-4.3 4.3-7.5 10.3-7.5 21.2 0 7.4 1.5 12.9 4.8 17.7 3.5 5 8.8 7.5 15.9 7.5 6.2 0 10.6-2 15.2-6.6m-58.2-24h-22.8c.4-10.3 4.4-15.5 11.5-15.5 3.8 0 7.3 1.7 9 4.4 1.5 2.4 2.2 5.7 2.3 11m8.3 6v-1.1c0-12-1.4-16.6-5.7-21a18.4 18.4 0 0 0-13.5-5.4c-6 0-11 2.2-15 6.9a27 27 0 0 0-6 18.8c0 16.5 8.4 26.5 22.2 26.5 6.4 0 12.4-2.2 16.8-6.2l-3-5a17.1 17.1 0 0 1-12.2 4.7c-5 0-9.6-1.8-12.4-6.1a19.9 19.9 0 0 1-2.3-11v-1.1h31zm-42.1-45h-45.4v6.9h18.4v61.7h7.9v-61.7h18.6l.5-7zm-67.4-1a20 20 0 0 0-11-2.8c-3.7 0-6.4.8-8.8 2.6-2.1 1.6-5.5 4.8-5.5 12.2v7.8h-4.8v5.9h4.8v43.9h8.2v-44h11.4l2.4-5.8h-13.8v-7.7c0-5.7 2.4-8.8 6.8-8.8 2.7 0 5.5 1.2 7.4 2.3l2.9-5.5zm-51.7 46c0 5-.4 7.8-1.5 10.9a10.8 10.8 0 0 1-10.8 7.5c-4.3 0-8.3-2-10.1-5a35 35 0 0 1-3.1-16.3c0-6 .8-10 2.4-13 1.7-3.3 5.8-5.4 10.2-5.4 4 0 8.5 2 10.6 6.4 1.6 3.3 2.3 8 2.3 15m8.9-.6c0-8.1-1.5-14-4.6-18.5a19.7 19.7 0 0 0-17.1-8.7c-13.1 0-21.2 9.9-21.2 26 0 16.5 7.8 26.6 21.5 26.6 12.5 0 21.4-8.8 21.4-25.4m-76.4-25.7h-9l-9.7 32.7-3.1 10.5h-.2s-1.5-7.7-3-12.4L1358 374l-7.7 2.6 10.7 31.2a199 199 0 0 1 5 17.9l3.2-.5c-2.7 10-5.1 13.3-11.5 15.3l2.3 5.3c8.7-2.1 12.8-8.7 16-18.7l17.2-51.6zm-48.4 0h-12.5c0-6.6 1-14.4 1-14.4l-8.2 1.8s-.8 7.8-.8 12.6h-6.5v5.9h6.5v34.2c0 5 1.3 8.2 4.8 9.9a18.4 18.4 0 0 0 15.3-.6l-1.1-5a10 10 0 0 1-5 1c-4.8 0-6.3-2-6.3-7.4v-32.1h10.4l2.4-6zm-39.3-15.4a6 6 0 0 0-6.1-6.1 6.1 6.1 0 0 0-6.1 6.2 6 6 0 0 0 6 6 6 6 0 0 0 6.2-6.1m-2.2 65.2v-51l-8.1 1.4v49.6h8zm-24.1-14.8c0-7.4-4.3-12-13.3-14l-6.6-1.3c-5.3-1.1-7.2-3.4-7.2-7.2 0-5 3.7-8.2 9.4-8.2 4.4 0 8 1.5 12.5 3.6l2.9-5.8c-4.2-2.4-10-4-15.2-4-10.4 0-17.7 6.3-17.7 15.3 0 6.9 4.4 12 12.6 13.7l6.2 1.3c5.7 1.2 8.2 3.7 8.2 8.2 0 5.3-4 8.6-10.1 8.6a30 30 0 0 1-15.8-4.7l-3 5.8c5 3 12 5 18.3 5 11.2 0 18.8-6.6 18.8-16.3m-42.6-36s-1.4-.5-2.7-.5c-5.1 0-10.4 3.2-14 8.3a18 18 0 0 0-1.6-8.1l-7.8 2s1.7 3.4 1.7 10.7v38.4h7.8v-31.2c0-4.1.6-5.6 2.9-8s5.3-3.5 8.3-3.5c.8 0 1.7.2 2.2.4l3.2-8.5zm-49.7 21.3h-22.8c.4-10.3 4.4-15.5 11.5-15.5 3.8 0 7.3 1.7 9 4.4 1.5 2.4 2.2 5.7 2.3 11m8.3 6v-1.1c0-12-1.4-16.6-5.7-21a18.4 18.4 0 0 0-13.5-5.4c-6 0-11 2.2-15 6.9a27 27 0 0 0-6 18.8c0 16.5 8.4 26.5 22.2 26.5 6.4 0 12.4-2.2 16.8-6.2l-3-5a17.1 17.1 0 0 1-12.2 4.7c-5 0-9.6-1.8-12.4-6.1a19.9 19.9 0 0 1-2.3-11v-1.1h31zm-49.6-26.2h-8.3l-11.4 33c-1.6 4.6-2.4 8.5-2.4 8.5h-.2s-1-4.4-2.4-8.5l-11.6-34.3-8 1.7 17.9 49.9h7.7l18.7-50.3zm-55.1-15.4c0-3.4-2.7-6.1-6.1-6.1s-6.1 2.8-6.1 6.2c0 3.3 2.7 6 6 6s6.2-2.7 6.2-6.1m-2.2 65.2v-51l-8.1 1.4v49.6h8zm-29.1 0v-37.8c0-2-.4-4-1.2-5.8-2-4.4-6.8-7.3-12.2-7.3-5.3 0-10.5 2.5-15.7 7.7 0-4.1-1.8-7.8-1.8-7.8l-7.6 2s1.9 3.5 1.9 10.6v38.4h7.6v-37.1a23 23 0 0 1 13.8-7c2.3 0 4.4.8 5.5 2 1.4 1.8 1.8 3 1.8 8.4v33.7h7.9zm-57.1-19.8v-48.8H994v47.8c0 4.6-.3 7.6-2.6 10.7-2.1 2.8-6.4 4.3-12.1 4.3-8.4 0-12.1-3.7-13.4-6.7-1-2.1-1.2-6.5-1.2-10v-46.1h-8.1V406c0 3 .2 7.4 2 10.7 3.7 6.8 9.7 9.9 20.3 9.9 8.3 0 13.8-1.7 18-5.3 4-3.5 5.2-7.4 5.2-15.7m611.6 219.6c0-3.4-.9-6.3-2.8-8.7-1.8-2.3-3.9-4.2-10.2-5.8l-6.2-1.6c-4.7-1.2-6.4-2.6-6.4-5.2 0-3 2.6-5 6.5-5a27 27 0 0 1 12.6 3.7l4.4-9a38.5 38.5 0 0 0-18.3-4.8c-11.9 0-19.8 6.7-19.8 16.7 0 3.3 1.1 7 3 9.2a18 18 0 0 0 9.3 5.2l6 1c5.4 1 8 2.9 8 6.4 0 3.3-3 5.8-6.9 5.8-5.8 0-12.9-3.3-17-5.8l-4.8 9.8a45.5 45.5 0 0 0 20.7 5.9c13.1 0 22-7.2 22-17.8m-47.7 15l-1.7-8c-2.4.8-3.6 1-4.8 1-4.6 0-5.8-1.6-5.8-8.1v-25.7h8.6l3.4-9.2h-12c0-5.2.3-10.8.8-15.5L1541 578c-.5 3.8-.5 7-.5 12h-5v9.3h5v27.8c0 4.7.1 5.7 1 7.9 1.5 4.5 7 7.5 13.7 7.5 3.5 0 7-.7 11-2.3m-34.7-50.2c-2-1-3-1.1-5-1.1-5 0-9 3.4-12 7.3-.2-3-.9-5.2-2-7.3l-12 3.2c1 2.9 1.8 8 1.8 15v34.2h13.4v-36.2c2.5-3 5.2-4.3 8.2-4.3 1.5 0 2.6.3 4 1l3.6-11.8zm-58.5 29l-.2 11a9.7 9.7 0 0 1-7 3.5c-3.4 0-5.9-2.7-5.9-6.7 0-6.1 3.2-7.8 12.5-7.8h.6zm18 16.8c-4.6-3.4-5-5.8-4.9-11.4l.3-17.2c.1-5.5-.2-7.1-.9-9.2-2-5.7-7.9-9-16.5-9a49.3 49.3 0 0 0-22.3 7.2l5.7 9.7a28.2 28.2 0 0 1 14.8-5.8c5 0 6 1.9 6 7.6v2h-3c-16.3 0-24.6 5.6-24.6 17.6 0 10.2 6.2 16 17.6 16 4.2 0 7.8-1 10.3-2.8a25 25 0 0 0 3.1-2.7c1.3 2.6 4.1 4.9 7.2 6.2l7.1-8.2zm-51.4 4.5l-1.7-8c-2.4.7-3.6 1-4.8 1-4.6 0-5.8-1.7-5.8-8.2v-25.7h8.6l3.4-9.2h-12c0-5.2.3-10.8.8-15.5l-13.6 3.4c-.5 3.8-.5 7-.5 12h-5v9.3h5v27.8c0 4.7.1 5.7 1 7.9 1.5 4.5 7 7.5 13.7 7.5 3.5 0 7-.7 11-2.3m-37.2-15.1c0-3.4-.9-6.3-2.8-8.7-1.8-2.3-3.9-4.2-10.2-5.8l-6.2-1.6c-4.7-1.2-6.4-2.6-6.4-5.2 0-3 2.6-5 6.5-5a27 27 0 0 1 12.6 3.7l4.4-9a38.5 38.5 0 0 0-18.3-4.8c-11.9 0-19.8 6.7-19.8 16.7 0 3.3 1.1 7 3 9.2a18 18 0 0 0 9.3 5.2l6 1c5.4 1 8 2.9 8 6.4 0 3.3-3 5.8-6.9 5.8-5.8 0-12.9-3.3-17-5.8l-4.8 9.8a45.5 45.5 0 0 0 20.7 5.9c13.1 0 22-7.2 22-17.8m-77.7 16.2V604c0-3.2-.3-5.4-1-7.3-1.6-4.4-6.6-7.4-12.3-7.4-3 0-6.5.8-9.2 2.2-2.2 1.2-3.9 2.4-5.9 3.8 0-2.1-.7-4.3-1.9-6.4l-11.9 3.4a37 37 0 0 1 1.8 12v37h13.4v-36.1c3.1-2.8 6.6-4.6 9.3-4.6 3.5 0 4.5 1.7 4.5 7.5v33.3h13.2zm-67.5-26c0 12.2-2.5 17.4-8.3 17.4a7.4 7.4 0 0 1-6.8-4.2 39 39 0 0 1-1.7-13c0-5 .5-8.6 1.4-11.3a7.2 7.2 0 0 1 7-5.2c2.3 0 4.4 1 5.7 2.7 1.8 2.3 2.7 6.8 2.7 13.7m14.6 0c0-8.2-1.8-13.8-5.9-18.6a21.5 21.5 0 0 0-17.4-7.7c-13.8 0-23 10.7-23 26.8 0 16 9.1 26.5 23 26.5a21 21 0 0 0 17-7.1c4.3-5 6.3-11 6.3-19.8m-57.2-39.5c0-4.6-3.6-8.3-8-8.3a8.4 8.4 0 0 0-8.5 8.3 8.3 8.3 0 1 0 16.5 0m-1.6 65.3V589l-13.4 2v50.4h13.4zm-23.9-1.1l-1.7-8c-2.4.7-3.6 1-4.8 1-4.6 0-5.8-1.7-5.8-8.2v-25.7h8.6l3.4-9.2h-12c0-5.2.3-10.8.8-15.5l-13.6 3.4c-.5 3.8-.5 7-.5 12h-5v9.3h5v27.8c0 4.7.1 5.7 1 7.9 1.5 4.5 7 7.5 13.7 7.5 3.5 0 7-.7 11-2.3m-55-21.3l-.2 11a9.7 9.7 0 0 1-7 3.5c-3.4 0-5.9-2.7-5.9-6.7 0-6.1 3.2-7.8 12.5-7.8h.6zm18 16.8c-4.6-3.4-5-5.8-4.9-11.4l.3-17.2c.1-5.5-.2-7.1-.9-9.2-2-5.7-7.9-9-16.5-9a49.3 49.3 0 0 0-22.3 7.2l5.7 9.7a28.2 28.2 0 0 1 14.8-5.8c5 0 6 1.9 6 7.6v2h-3c-16.3 0-24.6 5.6-24.6 17.6 0 10.2 6.2 16 17.6 16 4.2 0 7.8-1 10.3-2.8a25 25 0 0 0 3.1-2.7c1.3 2.6 4.1 4.9 7.2 6.2l7.1-8.2zm-48.9-45.6h-14l-6.9 21.5c-1.6 5-2.7 10-3 13-.8-3.3-2.3-9-3.4-12.3l-7.4-23.1-13.7 1.7 18.6 50.4h11.1l18.7-51.2zm-66.5 25.3c0 12-2.5 17.3-8.3 17.3a7.4 7.4 0 0 1-6.8-4.2 39 39 0 0 1-1.7-13c0-5 .5-8.6 1.4-11.3a7.2 7.2 0 0 1 7-5.2c2.3 0 4.4 1 5.7 2.7 1.8 2.3 2.7 6.8 2.7 13.7m14.6 0c0-8.2-1.8-13.8-5.9-18.6a21.5 21.5 0 0 0-17.4-7.7c-13.8 0-23 10.7-23 26.8 0 16 9.1 26.5 23 26.5a21 21 0 0 0 17-7.1c4.3-5 6.3-11 6.3-19.8m-58.8 25.8V604c0-3.2-.3-5.4-1-7.3-1.6-4.4-6.6-7.4-12.3-7.4-3 0-6.5.8-9.2 2.2-2.2 1.2-3.9 2.4-5.9 3.8 0-2.1-.7-4.3-1.9-6.4l-11.9 3.4a37 37 0 0 1 1.8 12v37h13.4v-36.1c3.1-2.8 6.6-4.6 9.3-4.6 3.5 0 4.5 1.7 4.5 7.5v33.3h13.2zm-56.4 0V604c0-3.2-.3-5.4-1-7.3-1.6-4.4-6.6-7.4-12.3-7.4-3 0-6.5.8-9.2 2.2-2.2 1.2-3.9 2.4-5.9 3.8 0-2.1-.7-4.3-1.9-6.4l-11.9 3.4a37 37 0 0 1 1.8 12v37h13.4v-36.1c3.1-2.8 6.6-4.6 9.3-4.6 3.5 0 4.5 1.7 4.5 7.5v33.3h13.2zM881.6 576c0-4.6-3.6-8.3-8-8.3a8.4 8.4 0 0 0-8.5 8.3 8.3 8.3 0 1 0 16.5 0m-1.6 65.3V589l-13.4 2v50.4H880zm-62.3-31.2h-15.5v-.2c0-7.1 3-11.1 8-11.1 2.7 0 4.6 1 6 3 1.1 1.9 1.5 3.9 1.5 7.7v.6zm14 9.8v-3.1c0-10.7-2.2-17.6-6.9-22.4A21 21 0 0 0 810 589c-6.8 0-11.9 2.2-16 6.9-4.6 5-6.5 11-6.5 20.3 0 16 9.5 26.5 24.2 26.5 7.2 0 13.4-2.3 19.3-7.1l-5.2-8a20 20 0 0 1-13 5c-6.9 0-10.8-4.4-10.8-12.3v-.4h29.6zm-47.2-30c-2-.8-3-1-5-1-5 0-9 3.4-12 7.3-.2-3-.9-5.2-2-7.3l-12 3.2c1 2.9 1.8 8 1.8 15v34.2h13.4v-36.2c2.5-3 5.2-4.3 8.2-4.3 1.5 0 2.6.3 4 1l3.6-11.8zM730 610.3h-15.5v-.2c0-7.1 3-11.1 8-11.1 2.7 0 4.6 1 6 3 1.1 1.9 1.5 3.9 1.5 7.7v.6zm14 9.8V617c0-10.7-2.2-17.6-6.9-22.4a21 21 0 0 0-14.8-5.4c-6.8 0-11.9 2.2-16 6.9-4.6 5-6.5 11-6.5 20.3 0 16 9.5 26.5 24.2 26.5 7.2 0 13.4-2.3 19.3-7.1l-5.2-8a20 20 0 0 1-13 5c-6.9 0-10.8-4.4-10.8-12.3v-.4h29.6zm-57.2 21.4v-35.8a24 24 0 0 0-1.3-9.5c-1.6-4.5-6.8-7.3-13.3-7.3-5.2 0-11 2.2-14.5 5.5l.2-4.3v-10.2a69 69 0 0 0-.9-12.5l-13.7 3.2c.6 2 1 6.9 1 11.7v59.2h13.6v-36.7c3-2.7 7.3-4.7 10.6-4.7 3.8 0 5.2 1.9 5.2 7v34.4h13.1zM635.3 572h-14.7l-5.7 26.4c-1.5 6.8-3.6 20.9-3.8 23 0 0-1.7-11.8-3-18.3l-6.4-31.1h-15.3l-6.2 28a237 237 0 0 0-3.6 22.3s-.9-10-3.7-23l-6-27.3H552l16.6 70h16l5.7-28.4c2-9.2 3.1-18 3.3-19.6.2 2.5 1.3 11 3.3 19.8l6.2 28.3h15.3l16.8-70.1z"/>
</svg>
